{"glyphs":{"0":{"ha":694,"x_min":0,"x_max":0,"o":"m 349 871 b 624 418 482 871 624 713 b 351 -16 624 121 476 -16 b 70 426 214 -16 70 146 b 349 871 70 703 212 871 m 484 674 b 348 786 447 750 395 786 b 160 443 262 786 160 664 b 180 279 160 381 167 327 l 484 674 m 212 191 b 354 73 249 115 303 73 b 535 407 430 73 535 165 b 516 581 535 474 528 532 "},"1":{"ha":694,"x_min":0,"x_max":0,"o":"m 414 76 l 569 76 l 569 -1 l 161 -1 l 161 76 l 321 76 l 321 746 l 150 696 l 127 750 l 349 867 l 414 867 "},"2":{"ha":694,"x_min":0,"x_max":0,"o":"m 108 731 b 350 871 159 818 252 871 b 601 628 491 871 601 763 b 449 355 601 504 512 415 b 213 85 386 297 286 211 l 577 85 b 591 91 583 85 586 86 b 610 97 594 93 601 100 l 610 0 l 102 0 l 102 61 b 353 383 175 205 254 294 b 505 621 416 440 505 516 b 339 786 505 714 431 786 b 191 707 263 786 211 739 b 179 675 183 695 187 687 l 108 731 "},"3":{"ha":694,"x_min":0,"x_max":0,"o":"m 571 649 b 441 461 571 565 519 490 b 590 238 531 429 590 341 b 323 -15 590 104 489 -15 b 96 84 237 -15 154 19 l 169 171 b 187 132 181 159 175 145 b 322 73 193 125 242 73 b 497 250 424 73 497 155 b 293 414 497 353 410 414 b 249 411 279 414 264 413 l 249 489 b 386 511 331 489 371 504 b 478 647 446 537 478 594 b 328 782 478 720 417 782 b 179 716 274 782 219 759 l 125 776 b 333 868 179 835 255 868 b 571 649 469 868 571 767 "},"4":{"ha":694,"x_min":0,"x_max":0,"o":"m 517 867 l 517 325 l 628 325 l 628 239 l 517 239 l 517 0 l 416 0 l 416 240 l 67 240 l 67 312 l 435 867 m 163 325 l 417 325 l 417 712 "},"5":{"ha":694,"x_min":0,"x_max":0,"o":"m 586 865 l 586 778 l 229 778 l 216 529 b 357 562 261 551 309 562 b 619 274 502 562 619 459 b 345 -16 619 86 495 -16 b 89 117 242 -16 146 33 l 175 182 b 185 149 187 174 180 160 b 344 70 190 140 251 70 b 519 275 437 70 519 142 b 342 482 519 413 433 482 b 180 400 283 482 222 453 l 117 426 l 147 865 "},"6":{"ha":694,"x_min":0,"x_max":0,"o":"m 399 875 b 589 796 469 875 538 846 l 521 722 b 500 753 509 731 509 744 b 399 789 495 758 457 789 b 189 454 337 789 195 750 b 373 559 228 519 297 559 b 610 275 495 559 610 455 b 363 -14 610 97 495 -14 b 159 101 286 -14 209 24 b 93 394 103 184 93 293 b 130 660 93 477 101 578 b 399 875 184 812 296 875 m 364 474 b 194 357 299 474 233 428 b 367 72 183 195 262 72 b 516 270 441 72 516 135 b 364 474 516 419 433 474 "},"7":{"ha":694,"x_min":0,"x_max":0,"o":"m 599 865 l 599 811 b 435 405 541 678 486 542 b 297 0 385 271 339 136 l 188 0 b 354 463 239 156 295 310 b 479 773 394 567 436 670 l 109 773 l 109 865 "},"8":{"ha":694,"x_min":0,"x_max":0,"o":"m 359 876 b 584 671 486 876 584 785 b 446 463 584 588 530 507 b 613 223 543 418 613 325 b 347 -14 613 92 499 -14 b 84 218 198 -14 84 89 b 257 460 84 317 154 412 b 125 663 178 500 125 578 b 359 876 125 780 226 876 m 330 421 b 183 230 247 387 183 312 b 351 73 183 143 257 73 b 515 224 443 73 515 141 b 330 421 515 309 441 386 m 351 795 b 218 671 276 795 218 739 b 370 497 218 557 370 497 b 489 665 438 534 489 598 b 351 795 489 737 429 795 "},"9":{"ha":694,"x_min":0,"x_max":0,"o":"m 302 -15 b 110 65 230 -15 161 14 l 177 139 b 200 106 192 130 188 115 b 304 74 200 105 242 74 b 475 193 366 74 438 106 b 511 408 484 215 506 273 b 332 314 470 349 404 314 b 95 587 206 314 95 421 b 342 874 95 755 208 874 b 577 686 433 874 532 818 b 607 444 598 627 607 552 b 570 187 607 302 585 227 b 302 -15 518 49 407 -15 m 342 399 b 506 505 404 399 468 440 b 340 788 521 679 439 788 b 189 591 262 788 189 717 b 342 399 189 462 264 399 "}," ":{"ha":694,"x_min":0,"x_max":0,"o":""},"!":{"ha":694,"x_min":0,"x_max":0,"o":"m 415 67 b 333 -16 415 21 378 -16 b 250 67 287 -16 250 21 b 333 149 250 112 287 149 b 415 67 378 149 415 112 m 335 928 b 401 868 361 928 390 910 b 406 812 403 860 406 844 b 393 653 406 759 397 706 l 368 270 l 298 270 l 278 653 b 264 823 273 745 264 778 b 274 883 264 849 267 868 b 335 928 286 913 311 928 "},"\"":{"ha":694,"x_min":0,"x_max":0,"o":"m 551 840 b 505 664 551 803 539 759 l 471 572 l 394 591 l 424 684 b 438 761 432 708 438 734 b 429 849 438 791 429 819 b 488 925 429 904 462 925 b 551 840 516 925 551 903 m 311 840 b 265 664 311 803 299 759 l 231 572 l 155 591 l 185 684 b 198 761 192 708 198 734 b 189 849 198 791 189 819 b 249 925 189 904 222 925 b 311 840 276 925 311 903 "},"#":{"ha":694,"x_min":0,"x_max":0,"o":"m 325 870 l 296 632 l 449 634 l 476 859 l 562 863 l 534 635 l 660 636 l 653 569 l 526 568 l 498 334 l 635 337 l 628 272 l 490 270 l 459 19 l 375 14 l 405 268 l 252 266 l 222 19 l 140 16 l 170 265 l 35 262 l 41 326 l 177 328 l 205 565 l 54 563 l 59 629 l 213 631 l 241 867 m 259 330 l 413 333 l 441 567 l 288 566 "},"$":{"ha":694,"x_min":0,"x_max":0,"o":"m 416 904 b 417 899 417 902 417 901 b 408 875 417 889 408 888 l 408 822 b 614 716 490 813 563 776 l 554 640 b 547 650 551 641 547 643 b 545 662 546 654 547 658 b 539 670 545 663 544 665 b 408 740 510 705 468 731 l 408 472 b 499 439 439 462 471 451 b 639 252 529 426 639 379 b 408 23 639 152 565 43 l 408 -65 l 326 -65 l 326 20 b 83 131 230 26 145 64 l 143 213 b 149 200 150 210 149 202 b 153 185 148 194 148 191 b 326 100 192 144 253 108 l 326 405 b 250 435 301 414 275 423 b 110 619 133 490 110 569 b 326 821 110 719 198 804 l 326 904 m 408 103 b 548 246 497 120 548 183 b 479 352 548 274 537 320 b 408 380 460 362 435 371 m 326 741 b 202 631 239 731 202 679 b 277 524 202 601 216 559 b 326 501 292 516 308 508 "},"%":{"ha":694,"x_min":0,"x_max":0,"o":"m 636 865 l 152 0 l 64 0 l 543 865 m 194 881 b 350 698 279 881 350 804 b 195 518 350 595 280 518 b 39 699 110 518 39 596 b 194 881 39 806 112 881 m 192 808 b 123 704 165 808 123 786 b 194 592 123 610 169 592 b 263 694 222 592 263 614 b 192 808 263 793 215 808 m 670 166 b 515 -15 670 62 599 -15 b 360 166 430 -15 360 62 b 515 346 360 270 431 346 b 670 166 599 346 670 270 m 515 274 b 442 166 485 274 442 250 b 516 56 442 84 483 56 b 587 163 546 56 587 80 b 515 274 587 252 543 274 "},"&":{"ha":694,"x_min":0,"x_max":0,"o":"m 318 874 b 503 689 422 874 503 796 b 354 458 503 598 444 507 l 509 241 b 572 353 542 279 561 320 b 574 363 573 356 574 359 b 572 380 574 369 572 374 b 578 394 572 387 574 391 l 668 332 b 562 170 636 276 601 222 l 659 44 l 578 -17 l 501 105 b 267 -14 446 37 360 -14 b 50 203 142 -14 50 79 b 225 476 50 310 119 417 b 127 692 174 538 127 615 b 318 874 127 795 212 874 m 223 690 b 307 518 223 653 238 604 b 413 682 371 553 413 619 b 316 792 413 748 367 792 b 223 690 267 792 223 751 m 273 411 b 155 213 199 363 155 285 b 282 75 155 132 211 75 b 451 171 374 75 451 171 l 273 411 "},"'":{"ha":694,"x_min":0,"x_max":0,"o":"m 443 840 b 397 664 443 803 431 759 l 363 572 l 286 591 l 316 684 b 330 761 324 708 330 734 b 321 849 330 791 321 819 b 381 925 321 904 354 925 b 443 840 408 925 443 903 "},"(":{"ha":694,"x_min":0,"x_max":0,"o":"m 586 840 b 575 837 581 838 577 837 b 560 839 569 837 565 839 b 548 835 555 839 551 837 b 289 364 385 739 289 562 b 591 -167 289 148 401 -56 l 545 -240 b 193 359 325 -124 193 107 b 544 925 193 613 329 831 "},")":{"ha":694,"x_min":0,"x_max":0,"o":"m 134 924 b 506 348 360 820 506 595 b 127 -242 506 98 357 -132 l 101 -158 b 408 344 288 -59 408 135 b 108 838 408 550 291 740 "},"*":{"ha":694,"x_min":0,"x_max":0,"o":"m 409 720 b 400 683 406 704 402 700 l 379 475 l 599 575 l 636 490 l 398 418 l 573 209 l 497 149 l 348 379 l 192 147 l 116 209 l 297 417 l 58 490 l 93 580 l 318 475 l 296 720 "},"+":{"ha":694,"x_min":0,"x_max":0,"o":"m 396 726 l 396 489 l 633 489 l 633 404 l 396 404 l 396 144 l 308 144 l 308 404 l 62 404 l 62 489 l 308 489 l 308 726 "},",":{"ha":694,"x_min":0,"x_max":0,"o":"m 424 27 b 277 -234 424 -45 374 -136 l 229 -192 b 299 -105 262 -161 285 -128 b 319 -48 306 -94 319 -71 b 287 2 319 -19 299 -6 b 248 63 275 10 248 26 b 328 143 248 105 282 143 b 424 27 377 143 424 98 "},"-":{"ha":694,"x_min":0,"x_max":0,"o":"m 598 483 l 598 391 l 98 391 l 98 483 "},".":{"ha":694,"x_min":0,"x_max":0,"o":"m 414 64 b 331 -16 414 20 377 -16 b 249 64 286 -16 249 20 b 331 144 249 108 286 144 b 414 64 377 144 414 108 "},"/":{"ha":694,"x_min":0,"x_max":0,"o":"m 524 923 l 606 881 l 170 -59 l 89 -18 "},":":{"ha":694,"x_min":0,"x_max":0,"o":"m 414 508 b 331 428 414 464 377 428 b 249 508 286 428 249 464 b 331 587 249 551 286 587 b 414 508 377 587 414 551 m 414 64 b 331 -16 414 20 377 -16 b 249 64 286 -16 249 20 b 331 144 249 108 286 144 b 414 64 377 144 414 108 "},";":{"ha":694,"x_min":0,"x_max":0,"o":"m 424 27 b 277 -234 424 -45 374 -136 l 229 -192 b 299 -105 262 -161 285 -128 b 319 -48 306 -94 319 -71 b 287 2 319 -19 299 -6 b 248 63 275 10 248 26 b 328 143 248 105 282 143 b 424 27 377 143 424 98 m 414 508 b 331 428 414 464 377 428 b 249 508 286 428 249 464 b 331 587 249 551 286 587 b 414 508 377 587 414 551 "},"<":{"ha":694,"x_min":0,"x_max":0,"o":"m 636 787 l 48 478 l 48 411 l 640 66 l 640 170 l 155 443 l 636 689 "},"=":{"ha":694,"x_min":0,"x_max":0,"o":"m 633 609 l 633 524 l 62 524 l 62 609 m 633 321 l 633 236 l 62 236 l 62 321 "},">":{"ha":694,"x_min":0,"x_max":0,"o":"m 59 787 l 647 478 l 647 411 l 55 66 l 55 170 l 541 443 l 59 689 "},"?":{"ha":694,"x_min":0,"x_max":0,"o":"m 445 62 b 363 -18 445 18 408 -18 b 280 62 317 -18 280 18 b 363 141 280 105 317 141 b 445 62 408 141 445 105 m 89 779 b 356 924 149 872 252 924 b 603 679 514 924 603 809 b 466 455 603 549 511 496 b 405 314 408 404 405 363 l 405 257 l 314 257 l 314 314 b 379 493 314 376 318 425 b 493 686 421 539 493 595 b 347 833 493 769 430 833 b 159 713 277 833 203 786 l 89 779 "},"@":{"ha":694,"x_min":0,"x_max":0,"o":"m 604 42 b 410 -16 546 4 478 -16 b 43 436 236 -16 43 114 b 377 879 43 751 225 879 b 615 725 478 879 570 823 b 646 525 645 658 646 591 l 646 243 l 562 243 l 562 296 b 423 231 528 255 477 231 b 243 412 324 231 243 312 b 375 595 243 487 289 561 b 538 617 430 617 485 617 l 559 617 b 373 804 558 720 477 804 b 123 440 253 804 123 690 b 418 63 123 169 283 63 b 567 109 471 63 523 79 l 604 42 m 539 548 b 385 515 490 548 431 547 b 330 416 347 489 330 452 b 439 308 330 356 378 308 b 542 371 480 308 520 329 b 562 521 563 413 562 466 l 562 548 "},"A":{"ha":694,"x_min":0,"x_max":0,"o":"m 326 881 l 337 881 l 671 0 l 571 0 l 475 253 l 200 253 l 116 -1 l 20 -1 m 331 658 l 219 328 l 453 328 "},"B":{"ha":694,"x_min":0,"x_max":0,"o":"m 313 865 b 475 841 366 865 420 865 b 601 654 556 806 601 732 b 472 464 601 571 550 496 b 634 240 569 431 634 340 b 490 26 634 150 583 66 b 312 0 430 1 371 0 l 67 0 l 67 865 m 163 507 l 298 507 b 418 524 337 507 378 507 b 502 645 473 548 502 596 b 415 767 502 695 472 744 b 300 783 376 783 337 783 l 163 783 m 163 85 l 328 85 b 440 103 366 85 402 86 b 533 249 500 130 533 187 b 434 404 533 312 499 374 b 304 426 391 425 348 426 l 163 426 "},"C":{"ha":694,"x_min":0,"x_max":0,"o":"m 385 873 b 651 701 500 873 604 806 l 559 656 b 552 669 552 660 552 668 b 553 680 552 673 553 676 b 548 694 553 686 551 690 b 382 795 513 755 450 795 b 151 436 260 795 151 666 b 390 70 151 202 263 70 b 567 175 458 70 527 109 l 639 128 b 385 -14 585 40 488 -14 b 56 428 242 -14 56 93 b 385 873 56 774 251 873 "},"D":{"ha":694,"x_min":0,"x_max":0,"o":"m 277 865 b 478 819 353 865 415 860 b 639 434 590 747 639 601 b 447 34 639 245 571 97 b 260 -1 386 2 329 -1 l 74 -1 l 74 865 m 167 76 l 255 76 b 417 115 310 76 363 78 b 541 421 486 161 541 256 b 434 735 541 545 514 669 b 271 783 380 780 325 783 l 167 783 "},"E":{"ha":694,"x_min":0,"x_max":0,"o":"m 612 867 l 612 780 l 174 780 l 174 496 l 536 496 l 536 408 l 174 408 l 174 86 l 609 86 l 609 0 l 82 0 l 82 867 "},"F":{"ha":694,"x_min":0,"x_max":0,"o":"m 606 867 l 606 781 l 206 781 l 206 509 l 530 509 l 530 426 l 206 426 l 206 0 l 108 0 l 108 867 "},"G":{"ha":694,"x_min":0,"x_max":0,"o":"m 385 874 b 636 729 492 874 587 818 l 568 659 b 550 687 557 666 554 677 b 384 789 523 745 462 789 b 190 665 312 789 234 749 b 146 443 156 601 146 523 b 229 148 146 351 156 230 b 393 72 276 94 337 72 b 549 125 445 72 500 90 l 549 331 l 392 331 l 392 415 l 639 415 l 639 77 b 385 -13 557 17 465 -13 b 50 422 234 -13 50 95 b 385 874 50 802 270 874 "},"H":{"ha":694,"x_min":0,"x_max":0,"o":"m 183 865 b 185 859 184 863 185 861 b 176 832 185 848 176 847 l 176 495 l 515 495 l 515 865 l 621 865 b 622 860 622 864 622 862 b 612 834 622 849 612 849 l 612 -1 l 514 -1 l 514 412 l 176 412 l 176 0 l 76 0 l 76 865 "},"I":{"ha":694,"x_min":0,"x_max":0,"o":"m 551 865 l 551 784 l 380 784 l 380 79 l 560 79 l 560 -1 l 113 -1 l 113 80 l 283 80 l 283 784 l 122 784 l 122 865 "},"J":{"ha":694,"x_min":0,"x_max":0,"o":"m 634 865 l 634 784 l 501 784 l 501 290 b 467 100 501 227 500 162 b 270 -16 427 25 352 -16 b 68 80 194 -16 120 19 l 133 159 b 142 134 141 152 135 142 b 272 70 145 130 199 70 b 374 126 313 70 351 91 b 405 289 406 174 405 235 l 405 784 l 239 784 l 239 865 "},"K":{"ha":694,"x_min":0,"x_max":0,"o":"m 175 867 b 167 847 177 857 170 851 b 162 831 162 840 162 837 l 162 466 l 524 873 b 596 865 548 867 572 865 l 632 865 l 304 491 l 654 -1 b 531 -6 586 -1 531 -6 l 230 433 l 162 358 l 162 0 l 59 0 l 59 867 "},"L":{"ha":694,"x_min":0,"x_max":0,"o":"m 205 865 b 200 844 206 856 202 847 b 193 819 196 836 193 831 l 193 83 l 610 83 l 610 -1 l 92 -1 l 92 865 "},"M":{"ha":694,"x_min":0,"x_max":0,"o":"m 133 865 l 348 442 l 566 867 l 639 867 l 639 -1 l 547 -1 l 547 653 l 360 304 l 322 304 l 147 648 l 147 -1 l 56 -1 l 56 865 "},"N":{"ha":694,"x_min":0,"x_max":0,"o":"m 70 865 l 164 865 l 527 224 l 527 867 l 630 867 b 626 849 632 859 628 852 b 621 829 623 843 621 839 l 621 -1 l 544 -1 l 163 681 l 163 0 l 70 0 "},"O":{"ha":694,"x_min":0,"x_max":0,"o":"m 654 431 b 603 154 654 355 649 247 b 353 -13 546 39 446 -13 b 41 434 221 -13 41 94 b 352 875 41 774 223 875 b 601 712 446 875 545 823 b 654 431 649 619 654 512 m 348 784 b 137 447 257 784 137 705 b 353 81 137 171 256 81 b 519 199 412 81 479 114 b 557 418 554 273 557 362 b 524 647 557 491 553 574 b 348 784 483 747 409 784 "},"P":{"ha":694,"x_min":0,"x_max":0,"o":"m 345 865 b 509 836 401 865 455 864 b 633 622 591 794 633 709 b 511 410 633 534 591 451 b 352 382 458 384 406 382 l 352 382 l 182 382 l 182 0 l 82 0 l 82 865 m 181 467 l 356 467 b 456 485 390 467 423 468 b 533 617 507 511 533 562 b 451 756 533 674 505 729 b 345 774 416 773 381 774 l 182 774 "},"Q":{"ha":694,"x_min":0,"x_max":0,"o":"m 348 786 b 135 448 254 786 135 702 b 354 77 135 174 252 77 b 561 417 427 77 561 130 b 526 648 561 490 556 574 b 348 786 484 750 409 786 m 654 429 b 603 153 654 353 649 246 b 399 -9 555 57 478 5 b 501 -114 401 -57 414 -114 b 614 -107 532 -114 570 -109 l 611 -201 b 397 -180 511 -201 451 -207 b 314 -10 334 -149 313 -89 b 41 434 188 10 41 126 b 352 875 41 775 223 875 b 602 710 447 875 546 822 b 654 429 649 618 654 511 "},"R":{"ha":694,"x_min":0,"x_max":0,"o":"m 333 865 b 499 836 389 865 444 864 b 621 628 578 796 621 715 b 445 386 621 513 550 415 l 645 0 l 536 0 l 344 382 l 176 382 l 176 0 l 78 0 l 78 865 m 176 467 l 344 467 b 444 485 378 467 411 468 b 521 617 495 511 521 562 b 439 756 521 674 493 729 b 333 774 404 773 369 774 l 176 774 "},"S":{"ha":694,"x_min":0,"x_max":0,"o":"m 543 680 b 536 691 540 681 536 683 b 532 704 535 696 536 699 b 356 790 499 753 437 790 b 200 663 257 790 200 730 b 289 534 200 628 216 576 b 565 392 368 488 490 463 b 632 236 619 341 632 281 b 344 -14 632 127 554 -14 b 72 97 237 -14 140 23 l 129 197 b 136 183 136 193 136 186 b 140 169 136 178 135 174 b 347 73 178 120 252 73 b 535 230 472 73 535 155 b 463 350 535 269 520 314 b 192 480 397 391 273 420 b 100 648 120 533 100 598 b 364 870 100 767 208 870 b 604 762 458 870 545 832 "},"T":{"ha":694,"x_min":0,"x_max":0,"o":"m 642 867 l 642 779 l 387 779 l 387 -1 l 289 -1 l 289 779 l 43 779 l 43 867 "},"U":{"ha":694,"x_min":0,"x_max":0,"o":"m 179 865 b 180 858 180 863 180 861 b 171 839 180 850 175 844 b 165 821 166 832 165 827 l 165 297 b 186 170 165 254 166 212 b 351 67 217 103 283 67 b 516 168 419 67 484 102 b 538 301 537 213 538 256 l 538 865 l 630 865 l 630 303 b 596 120 630 240 629 180 b 349 -16 547 29 449 -16 b 103 119 247 -16 151 30 b 70 298 71 178 70 237 l 70 298 l 70 865 "},"V":{"ha":694,"x_min":0,"x_max":0,"o":"m 137 867 l 358 201 l 568 865 l 664 865 l 374 -6 l 330 -6 l 35 867 "},"W":{"ha":694,"x_min":0,"x_max":0,"o":"m 114 865 l 207 280 l 346 802 l 376 802 l 517 278 l 596 865 l 677 865 l 541 -6 l 502 -6 l 354 566 l 203 -6 l 163 -6 l 24 865 "},"X":{"ha":694,"x_min":0,"x_max":0,"o":"m 623 867 l 404 444 l 650 0 l 541 0 l 348 343 l 163 0 l 56 0 l 293 441 l 61 867 l 165 867 l 348 538 l 526 867 "},"Y":{"ha":694,"x_min":0,"x_max":0,"o":"m 150 867 l 362 446 l 554 865 l 657 865 l 411 342 l 411 0 l 306 0 l 306 342 l 40 867 "},"Z":{"ha":694,"x_min":0,"x_max":0,"o":"m 621 865 l 620 797 l 192 85 l 601 85 b 642 93 620 85 625 96 l 642 -1 l 70 -1 l 70 67 l 506 778 l 86 778 l 86 865 "},"[":{"ha":694,"x_min":0,"x_max":0,"o":"m 579 930 l 579 847 l 271 847 l 271 -44 l 580 -44 l 580 -123 l 182 -123 l 182 930 "},"\\":{"ha":694,"x_min":0,"x_max":0,"o":"m 525 -59 l 89 881 l 171 923 l 606 -18 "},"]":{"ha":694,"x_min":0,"x_max":0,"o":"m 513 -123 l 115 -123 l 115 -44 l 424 -44 l 424 847 l 116 847 l 116 930 l 513 930 "},"^":{"ha":694,"x_min":0,"x_max":0,"o":"m 342 865 l 372 865 l 560 511 l 485 476 l 351 719 l 199 476 l 129 509 "},"_":{"ha":694,"x_min":0,"x_max":0,"o":"m 647 -26 l 647 -111 l 48 -111 l 48 -26 "},"`":{"ha":694,"x_min":0,"x_max":0,"o":"m 305 640 b 227 805 281 668 262 710 l 194 897 l 265 932 l 302 841 b 341 773 311 818 323 794 b 404 711 360 750 385 734 b 408 615 439 669 428 632 b 305 640 387 597 345 592 "},"a":{"ha":694,"x_min":0,"x_max":0,"o":"m 126 560 b 352 649 185 621 267 649 b 573 543 451 649 531 612 b 604 393 602 494 604 445 l 604 0 l 509 0 l 509 70 b 282 -16 440 13 360 -16 b 68 164 149 -16 68 71 b 214 345 68 234 114 308 b 488 374 294 375 394 374 l 508 374 l 508 397 b 488 506 508 430 509 471 b 357 567 470 535 432 567 b 175 496 298 567 227 551 l 126 560 m 489 297 b 281 288 423 297 338 301 b 169 171 201 269 169 217 b 302 61 169 114 218 61 b 469 136 385 61 446 111 b 512 255 512 181 512 222 l 512 297 "},"b":{"ha":694,"x_min":0,"x_max":0,"o":"m 200 924 b 193 909 203 916 195 910 b 185 893 186 903 185 900 l 185 537 b 380 650 225 607 299 650 b 635 325 505 650 635 547 b 370 -16 635 95 500 -16 b 182 84 294 -16 224 22 l 147 0 l 83 0 l 83 924 m 345 564 b 201 471 282 564 225 528 b 185 338 187 436 185 395 b 188 213 185 283 184 246 b 344 74 204 92 300 74 b 531 304 406 74 531 110 b 345 564 531 528 405 564 "},"c":{"ha":694,"x_min":0,"x_max":0,"o":"m 563 447 b 555 479 552 455 560 468 b 390 562 551 487 499 562 b 181 327 274 562 181 472 b 399 75 181 179 275 75 b 567 152 462 75 524 104 l 624 85 b 390 -16 564 20 479 -16 b 78 317 211 -16 78 126 b 397 647 78 507 210 647 b 634 530 499 647 584 603 "},"d":{"ha":694,"x_min":0,"x_max":0,"o":"m 515 924 l 622 924 b 614 903 623 915 617 908 b 609 885 610 896 609 892 l 610 59 b 616 0 610 40 611 19 l 517 0 b 511 47 512 15 511 32 l 511 102 b 315 -14 471 31 396 -14 b 62 323 192 -14 62 88 b 329 651 62 565 208 651 b 515 542 417 651 485 607 m 334 569 b 159 339 261 569 159 520 b 338 74 159 130 266 74 b 494 194 404 74 470 118 b 507 310 504 226 507 262 b 497 446 507 381 505 416 b 334 569 472 540 390 569 "},"e":{"ha":694,"x_min":0,"x_max":0,"o":"m 359 650 b 610 424 463 650 582 595 b 615 303 617 388 619 347 l 165 303 b 380 66 172 113 295 66 b 544 138 443 66 503 92 l 599 84 b 372 -15 545 19 463 -15 b 67 310 200 -15 67 99 b 359 650 67 542 208 650 m 517 380 b 352 573 529 483 455 573 b 168 380 284 573 188 530 "},"f":{"ha":694,"x_min":0,"x_max":0,"o":"m 477 932 b 671 845 557 932 626 900 l 626 753 b 614 764 621 752 615 755 b 611 781 614 770 615 774 b 472 853 584 821 533 853 b 344 783 419 853 370 830 b 321 646 321 741 321 692 l 321 597 l 529 597 l 529 518 l 321 518 l 321 0 l 225 0 l 225 518 l 87 518 l 87 597 l 225 597 l 225 659 b 260 821 225 716 228 768 b 477 932 305 893 388 932 "},"g":{"ha":694,"x_min":0,"x_max":0,"o":"m 175 437 b 315 297 175 360 237 297 b 454 437 392 297 454 360 b 315 576 454 514 392 576 b 175 437 238 576 175 514 m 321 655 b 471 595 379 655 432 633 b 647 651 520 636 583 656 l 659 569 b 623 572 647 571 635 572 b 512 542 584 572 545 562 b 544 434 533 510 544 473 b 316 217 544 317 441 217 b 235 231 288 217 261 222 b 190 160 229 226 190 194 b 228 119 190 140 204 125 b 319 111 242 115 271 111 b 533 93 391 111 467 120 b 632 -45 601 65 632 10 b 340 -239 632 -130 555 -239 b 53 -89 118 -239 53 -158 b 156 52 53 -38 88 8 b 106 136 116 73 106 110 b 177 259 106 177 132 220 b 84 431 119 297 84 361 b 321 655 84 555 194 655 m 224 34 b 145 -65 188 14 145 -19 b 208 -143 145 -87 156 -122 b 338 -163 255 -162 309 -163 b 481 -135 381 -163 435 -161 b 540 -51 525 -112 540 -79 b 465 23 540 -23 524 14 b 330 26 428 28 377 25 b 224 34 282 28 248 31 "},"h":{"ha":694,"x_min":0,"x_max":0,"o":"m 97 923 l 212 923 b 213 919 213 922 213 920 b 204 904 213 912 207 907 b 199 891 199 899 199 895 l 199 523 b 410 650 246 593 324 650 b 579 538 482 650 547 609 b 602 385 601 487 602 434 l 602 385 l 602 0 l 503 0 l 503 382 b 469 523 503 427 503 482 b 383 563 446 550 415 563 b 231 475 316 563 255 507 b 199 366 204 439 199 408 l 199 0 l 97 0 "},"i":{"ha":694,"x_min":0,"x_max":0,"o":"m 402 635 l 402 80 l 550 80 l 550 0 l 139 0 l 139 80 l 301 80 l 301 554 l 147 554 l 147 635 m 354 911 b 426 840 393 911 426 879 b 354 768 426 800 393 768 b 282 840 314 768 282 800 b 354 911 282 879 314 911 "},"j":{"ha":694,"x_min":0,"x_max":0,"o":"m 512 635 l 512 44 b 483 -116 512 -10 510 -62 b 261 -242 440 -200 351 -242 b 67 -153 182 -242 113 -210 l 132 -67 b 144 -93 140 -74 138 -83 b 267 -156 149 -101 191 -156 b 395 -76 321 -156 371 -127 b 411 25 411 -42 411 -9 l 411 553 l 175 553 l 175 635 m 463 911 b 535 840 502 911 535 879 b 463 768 535 800 502 768 b 391 840 423 768 391 800 b 463 911 391 879 423 911 "},"k":{"ha":694,"x_min":0,"x_max":0,"o":"m 206 923 b 198 903 208 914 202 907 b 193 887 193 897 193 893 l 193 343 l 511 638 b 585 630 535 632 561 630 l 621 630 l 354 379 l 665 -1 b 656 -1 662 -1 659 -1 b 536 -6 589 -1 536 -6 l 277 318 l 193 240 l 193 -1 l 92 -1 l 92 923 "},"l":{"ha":694,"x_min":0,"x_max":0,"o":"m 398 923 l 398 80 l 585 80 l 585 0 l 109 0 l 109 80 l 297 80 l 297 843 l 117 843 l 117 923 "},"m":{"ha":694,"x_min":0,"x_max":0,"o":"m 53 634 l 145 634 l 144 572 b 274 650 173 616 222 650 b 386 557 331 650 376 610 b 528 650 411 613 467 650 b 627 599 564 650 603 636 b 653 451 655 557 653 503 l 653 -1 l 559 -1 l 559 449 b 550 541 559 478 562 515 b 500 577 540 565 520 577 b 426 520 461 577 436 537 b 399 420 402 480 399 453 l 399 0 l 306 0 l 306 441 b 299 524 306 467 308 498 b 241 573 289 559 263 573 b 164 514 215 573 187 557 b 144 423 146 481 144 453 l 144 0 l 53 0 "},"n":{"ha":694,"x_min":0,"x_max":0,"o":"m 95 634 l 197 634 l 197 523 b 407 650 243 593 321 650 b 576 538 480 650 545 609 b 599 385 599 487 599 434 l 599 385 l 599 0 l 501 0 l 501 382 b 466 523 501 427 501 482 b 380 563 444 550 412 563 b 228 475 313 563 252 507 b 197 366 202 439 197 408 l 197 0 l 95 0 "},"o":{"ha":694,"x_min":0,"x_max":0,"o":"m 639 314 b 354 -17 639 104 504 -17 b 56 312 194 -17 56 119 b 357 648 56 508 195 648 b 639 314 501 648 639 533 m 350 563 b 162 321 253 563 162 477 b 354 70 162 164 253 70 b 538 310 447 70 538 151 b 350 563 538 484 441 563 "},"p":{"ha":694,"x_min":0,"x_max":0,"o":"m 185 634 l 185 537 b 385 648 228 606 304 648 b 642 324 510 648 642 548 b 376 -17 642 92 506 -17 b 186 84 299 -17 228 21 l 186 -231 l 84 -231 l 83 634 m 348 563 b 201 471 284 563 225 528 b 184 346 187 438 184 400 b 203 159 184 254 184 202 b 348 72 228 102 288 72 b 538 304 407 72 538 104 b 348 563 538 534 404 563 "},"q":{"ha":694,"x_min":0,"x_max":0,"o":"m 519 634 l 614 634 l 614 -231 l 514 -231 l 514 102 b 320 -14 475 31 400 -14 b 59 323 179 -14 59 118 b 334 651 59 539 195 651 b 519 542 475 651 519 541 m 338 569 b 159 337 253 569 159 503 b 342 74 159 158 251 74 b 498 194 408 74 473 119 b 511 310 508 227 511 262 b 495 461 511 386 508 426 b 338 569 468 539 395 569 "},"r":{"ha":694,"x_min":0,"x_max":0,"o":"m 242 634 l 239 512 b 467 649 280 603 374 649 b 636 580 538 649 597 621 l 590 484 b 566 516 579 494 575 505 b 461 564 548 539 515 564 b 283 457 417 564 341 548 b 239 308 240 388 239 346 l 239 -1 l 138 -1 l 138 634 "},"s":{"ha":694,"x_min":0,"x_max":0,"o":"m 542 463 b 535 474 539 463 534 466 b 532 487 535 479 535 482 b 355 574 507 518 446 574 b 222 488 284 574 222 539 b 285 410 222 466 233 435 b 518 327 344 382 446 367 b 611 184 593 285 611 228 b 347 -14 611 88 520 -14 b 79 86 251 -14 154 17 l 137 186 b 143 173 143 183 143 175 b 147 158 143 167 142 163 b 345 70 167 135 236 70 b 508 170 436 70 508 110 b 445 251 508 193 497 226 b 274 309 398 273 328 290 b 120 473 240 321 120 362 b 364 650 120 567 216 650 b 601 550 458 650 542 615 "},"t":{"ha":694,"x_min":0,"x_max":0,"o":"m 370 822 b 363 785 375 808 365 800 b 346 635 356 750 346 635 l 554 635 l 554 553 l 345 553 b 333 304 337 470 333 387 b 337 182 333 212 336 188 b 444 80 347 106 397 80 b 586 138 483 80 532 98 l 617 59 b 414 -12 564 19 490 -12 b 270 55 350 -12 300 13 b 233 228 233 107 233 171 b 246 553 233 336 237 444 l 97 553 l 98 634 l 249 634 l 261 804 "},"u":{"ha":694,"x_min":0,"x_max":0,"o":"m 188 634 l 188 280 b 211 144 188 238 188 188 b 332 66 236 93 282 66 b 478 160 393 66 449 107 b 503 285 500 199 503 236 l 503 634 l 604 634 l 604 58 b 611 0 604 39 605 19 l 506 0 b 503 49 503 16 503 33 l 505 97 b 309 -16 463 27 388 -16 b 111 114 226 -16 149 30 b 86 280 87 170 86 225 l 87 634 "},"v":{"ha":694,"x_min":0,"x_max":0,"o":"m 175 635 b 171 608 177 624 171 617 b 173 599 171 605 171 602 l 356 135 l 458 372 b 544 635 494 455 527 543 l 634 635 b 539 357 613 539 577 446 l 385 -5 l 307 -5 l 55 635 "},"w":{"ha":694,"x_min":0,"x_max":0,"o":"m 123 635 b 121 608 127 624 123 615 b 120 583 118 597 118 592 l 212 125 l 321 575 l 382 575 l 517 126 b 575 634 571 487 578 557 l 668 634 b 562 -1 640 421 605 209 l 469 -1 l 351 410 l 240 -1 l 150 -1 l 22 635 "},"x":{"ha":694,"x_min":0,"x_max":0,"o":"m 605 635 l 400 326 l 633 0 l 519 0 l 344 247 l 179 0 l 66 0 l 289 322 l 70 635 l 179 635 l 345 400 l 503 635 "},"y":{"ha":694,"x_min":0,"x_max":0,"o":"m 188 634 b 182 604 189 622 182 615 b 185 593 182 600 183 597 l 370 126 l 491 466 b 539 635 511 521 529 577 l 644 635 b 580 452 625 573 603 512 l 382 -72 b 328 -172 369 -108 355 -141 b 169 -241 285 -220 226 -241 b 31 -188 116 -241 68 -223 l 83 -98 b 94 -121 91 -105 90 -114 b 168 -159 97 -128 121 -159 b 257 -118 198 -159 231 -146 b 301 -44 277 -97 290 -70 l 321 2 l 64 634 "},"z":{"ha":694,"x_min":0,"x_max":0,"o":"m 592 635 l 592 567 l 205 85 l 583 85 b 624 93 602 85 607 96 l 624 -1 l 70 -1 l 70 67 l 463 548 l 98 548 l 98 635 "},"{":{"ha":694,"x_min":0,"x_max":0,"o":"m 101 394 b 194 426 125 394 163 394 b 230 544 226 460 230 510 b 226 643 230 577 226 609 b 295 829 226 695 234 773 b 525 885 361 890 450 885 l 567 885 l 567 805 l 519 805 b 379 788 458 805 416 811 b 323 659 325 754 323 687 b 327 561 323 625 327 595 b 305 449 327 528 323 487 b 206 356 284 407 249 374 b 323 140 259 338 323 285 b 319 24 323 97 319 60 b 376 -119 319 -24 326 -85 b 514 -143 414 -145 457 -143 l 566 -143 l 566 -221 l 515 -221 b 298 -179 430 -221 358 -225 b 221 23 225 -123 221 -28 b 226 162 221 77 226 118 b 190 289 226 222 217 262 b 102 316 161 317 125 316 l 73 316 l 73 394 "},"|":{"ha":694,"x_min":0,"x_max":0,"o":"m 394 906 l 394 -210 l 301 -210 l 301 906 "},"}":{"ha":694,"x_min":0,"x_max":0,"o":"m 622 316 l 593 316 b 506 289 570 316 534 317 b 469 162 478 262 469 222 b 474 23 469 118 474 77 b 397 -179 474 -28 470 -123 b 180 -221 337 -225 266 -221 l 129 -221 l 129 -143 l 181 -143 b 319 -119 238 -143 281 -145 b 376 24 369 -85 376 -24 b 372 140 376 60 372 97 b 489 356 372 285 436 338 b 390 449 446 374 411 407 b 368 561 372 487 368 528 b 372 659 368 595 372 625 b 317 788 372 687 370 754 b 176 805 279 811 237 805 l 128 805 l 128 885 l 170 885 b 401 829 245 885 334 890 b 469 643 462 773 469 695 b 466 544 469 609 466 577 b 502 426 466 510 469 460 b 595 394 532 394 570 394 l 622 394 "},"~":{"ha":694,"x_min":0,"x_max":0,"o":"m 58 520 b 248 645 99 590 170 645 b 479 541 363 645 399 541 b 597 630 524 541 557 576 l 660 578 b 468 450 624 523 555 450 b 242 560 356 450 327 560 b 127 475 203 560 162 532 "}," ":{"ha":694,"x_min":0,"x_max":0,"o":""},"¡":{"ha":694,"x_min":0,"x_max":0,"o":"m 250 846 b 333 928 250 891 287 928 b 415 846 378 928 415 891 b 333 763 415 800 378 763 b 250 846 287 763 250 800 m 330 -16 b 264 44 304 -16 275 2 b 259 100 262 52 259 68 b 272 259 259 153 269 206 l 297 642 l 367 642 l 387 259 b 401 89 392 168 401 134 b 391 29 401 63 398 44 b 330 -16 379 -1 354 -16 "},"¢":{"ha":694,"x_min":0,"x_max":0,"o":"m 489 857 b 484 838 490 848 486 841 b 477 819 480 831 478 828 l 462 705 b 627 597 538 689 593 649 l 566 518 b 559 532 559 522 559 530 b 555 554 559 539 562 545 b 451 620 537 575 502 605 l 387 134 l 388 134 b 569 212 455 134 521 163 l 620 145 b 385 46 560 80 476 46 b 375 46 382 46 379 46 l 355 -109 l 274 -99 l 294 58 b 67 379 158 95 67 218 b 376 710 67 565 190 701 l 396 867 m 366 630 b 165 391 252 623 165 537 b 306 150 165 270 222 183 "},"£":{"ha":694,"x_min":0,"x_max":0,"o":"m 519 718 b 500 746 508 726 509 737 b 397 786 495 753 455 786 b 249 615 323 786 249 730 b 260 525 249 585 254 555 l 398 525 l 398 446 l 279 446 b 298 311 289 403 298 358 b 247 125 298 242 280 178 b 284 128 259 127 272 128 b 513 71 376 128 434 71 b 616 109 552 71 588 85 l 653 37 b 508 -21 622 12 569 -21 b 261 42 420 -21 362 42 b 90 -11 233 42 179 36 l 54 68 b 157 139 119 98 135 105 b 205 308 188 187 205 245 b 184 446 205 355 195 401 l 93 446 l 93 525 l 166 525 b 156 614 160 554 156 584 b 400 865 156 769 271 865 b 580 795 466 865 530 840 "},"€":{"ha":694,"x_min":0,"x_max":0,"o":"m 610 702 b 598 731 600 710 606 722 b 452 792 597 733 545 792 b 227 602 369 792 268 744 b 220 575 225 595 223 586 l 563 575 l 533 495 l 209 495 b 205 413 207 472 205 444 b 206 384 205 403 206 393 l 491 384 l 460 303 l 214 303 b 270 162 224 247 242 200 b 454 68 319 96 390 68 b 603 125 510 68 562 88 l 642 55 b 449 -16 589 9 521 -16 b 126 303 336 -16 162 46 l 46 303 l 64 384 l 119 384 b 119 406 119 391 119 398 b 123 495 119 436 120 466 l 46 495 l 64 575 l 135 575 b 184 712 145 625 161 671 b 457 872 255 836 370 872 b 645 797 530 872 597 846 "},"¥":{"ha":694,"x_min":0,"x_max":0,"o":"m 158 867 l 360 505 l 544 865 l 647 865 l 405 410 l 405 381 l 592 381 l 592 302 l 405 302 l 405 215 l 592 215 l 592 137 l 405 137 l 405 0 l 310 0 l 310 137 l 116 137 l 116 215 l 310 215 l 310 302 l 116 302 l 116 381 l 310 381 l 310 410 l 50 867 "},"Š":{"ha":694,"x_min":0,"x_max":0,"o":"m 376 911 l 346 911 l 175 1046 l 221 1099 l 364 1001 l 519 1096 l 559 1049 m 543 680 b 536 691 540 681 536 683 b 532 704 535 696 536 699 b 356 790 499 753 437 790 b 200 663 257 790 200 730 b 289 534 200 628 216 576 b 565 392 368 488 490 463 b 632 236 619 341 632 281 b 344 -14 632 127 554 -14 b 72 97 237 -14 140 23 l 129 197 b 136 183 136 193 136 186 b 140 169 136 178 135 174 b 347 73 178 120 252 73 b 535 230 472 73 535 155 b 463 350 535 269 520 314 b 192 480 397 391 273 420 b 100 648 120 533 100 598 b 364 870 100 767 208 870 b 604 762 458 870 545 832 "},"§":{"ha":694,"x_min":0,"x_max":0,"o":"m 495 741 b 484 769 485 748 488 760 b 358 851 473 801 431 851 b 231 744 284 851 231 802 b 305 641 231 716 244 673 b 453 581 345 620 397 608 b 580 424 550 535 580 474 b 478 290 580 366 538 315 b 567 129 539 249 567 188 b 331 -76 567 20 471 -76 b 90 43 238 -76 148 -33 l 163 128 b 175 104 174 124 172 112 b 331 16 179 93 226 16 b 468 126 416 16 468 68 b 404 224 468 158 451 197 b 198 304 346 259 267 264 b 110 439 137 341 110 391 b 223 579 110 502 157 555 b 131 736 157 620 131 680 b 357 933 131 841 227 933 b 573 810 449 933 530 886 m 274 554 b 211 467 237 541 211 507 b 286 364 211 436 227 393 b 426 317 328 344 376 337 b 476 400 456 332 476 364 b 396 509 476 432 460 477 b 274 554 360 527 317 536 "},"š":{"ha":694,"x_min":0,"x_max":0,"o":"m 369 719 l 339 719 l 186 916 l 251 964 l 358 821 l 471 962 l 524 915 m 542 463 b 535 474 539 463 534 466 b 532 487 535 479 535 482 b 355 574 507 518 446 574 b 222 488 284 574 222 539 b 285 410 222 466 233 435 b 518 327 344 382 446 367 b 611 184 593 285 611 228 b 347 -14 611 88 520 -14 b 79 86 251 -14 154 17 l 137 186 b 143 173 143 183 143 175 b 147 158 143 167 142 163 b 345 70 167 135 236 70 b 508 170 436 70 508 110 b 445 251 508 193 497 226 b 274 309 398 273 328 290 b 120 473 240 321 120 362 b 364 650 120 567 216 650 b 601 550 458 650 542 615 "},"©":{"ha":694,"x_min":0,"x_max":0,"o":"m 364 589 b 537 460 451 589 519 534 l 465 433 b 460 461 457 442 462 452 b 367 519 457 471 436 519 b 237 392 301 519 237 478 b 368 242 237 308 295 242 b 472 304 412 242 452 266 l 533 264 b 362 169 495 205 430 169 b 159 383 249 169 159 267 b 364 589 159 501 252 589 m 355 26 b 19 380 171 26 19 183 b 356 736 19 579 172 736 b 692 381 539 736 692 580 b 355 26 692 183 539 26 m 82 381 b 357 86 82 215 207 86 b 632 382 506 86 632 215 b 357 677 632 548 507 677 b 82 381 208 677 82 548 "},"ª":{"ha":694,"x_min":0,"x_max":0,"o":"m 170 786 b 357 865 220 844 291 865 b 524 773 432 865 496 835 b 541 674 539 742 541 710 l 541 370 l 453 370 l 453 417 b 305 357 412 378 359 357 b 141 502 209 357 141 425 b 224 631 141 548 166 600 b 431 660 286 664 363 660 l 452 660 l 452 677 b 437 749 452 701 451 725 b 348 790 421 773 392 790 b 218 729 300 790 249 772 l 170 786 m 433 589 b 314 585 397 589 350 591 b 231 506 252 574 231 536 b 319 432 231 467 265 432 b 425 476 361 432 400 453 b 455 565 455 504 455 532 l 455 589 m 591 286 l 591 211 l 105 211 l 105 286 "},"«":{"ha":694,"x_min":0,"x_max":0,"o":"m 556 556 l 610 499 l 442 334 l 620 140 l 565 85 l 345 319 l 345 351 m 304 556 l 358 499 l 191 334 l 368 140 l 313 85 l 93 319 l 93 351 "},"¬":{"ha":694,"x_min":0,"x_max":0,"o":"m 575 482 l 575 218 l 487 218 l 487 394 l 127 394 l 127 482 "},"­":{"ha":694,"x_min":0,"x_max":0,"o":"m 598 483 l 598 391 l 98 391 l 98 483 "},"®":{"ha":694,"x_min":0,"x_max":0,"o":"m 355 26 b 19 380 171 26 19 183 b 356 736 19 579 172 736 b 692 381 539 736 692 580 b 355 26 692 183 539 26 m 82 381 b 357 86 82 215 207 86 b 632 382 506 86 632 215 b 357 677 632 548 507 677 b 82 381 208 677 82 548 m 216 590 l 346 590 b 442 576 377 590 410 590 b 514 472 489 556 514 515 b 433 366 514 423 481 379 l 523 192 l 457 182 l 370 356 l 279 356 l 279 185 l 216 185 m 279 411 l 351 411 b 423 425 374 411 401 411 b 451 472 442 437 451 455 b 420 521 451 490 441 509 b 348 533 397 534 370 533 l 279 533 "},"¯":{"ha":694,"x_min":0,"x_max":0,"o":"m 524 863 l 524 785 l 171 785 l 171 863 "},"°":{"ha":694,"x_min":0,"x_max":0,"o":"m 543 701 b 355 514 543 598 459 514 b 168 701 252 514 168 598 b 355 887 168 803 252 887 b 543 701 459 887 543 803 m 357 814 b 253 702 300 814 253 765 b 357 591 253 640 300 591 b 460 703 413 591 460 640 b 357 814 460 765 413 814 "},"±":{"ha":694,"x_min":0,"x_max":0,"o":"m 635 111 l 635 24 l 64 24 l 64 111 m 396 798 l 396 561 l 633 561 l 633 476 l 396 476 l 396 216 l 308 216 l 308 476 l 62 476 l 62 561 l 308 561 l 308 798 "},"²":{"ha":694,"x_min":0,"x_max":0,"o":"m 155 770 b 359 885 196 842 274 885 b 544 729 469 885 544 814 b 479 600 544 664 499 618 b 270 427 424 549 347 513 l 523 427 b 537 432 529 427 532 428 b 556 439 540 435 547 442 l 556 351 l 168 351 l 168 412 b 389 621 245 519 347 587 b 460 729 429 654 460 687 b 356 814 460 773 422 814 b 233 755 302 814 257 786 b 219 726 225 746 226 739 l 155 770 "},"³":{"ha":694,"x_min":0,"x_max":0,"o":"m 358 886 b 540 737 461 886 540 817 b 461 628 540 686 508 643 b 563 509 520 618 563 567 b 353 349 563 418 464 349 b 156 439 278 349 206 382 l 221 511 b 240 472 233 498 227 485 b 355 427 247 465 289 427 b 478 517 423 427 478 467 b 356 593 478 542 462 593 b 314 591 341 593 327 593 l 314 660 b 342 659 323 660 332 659 b 457 731 433 659 457 699 b 354 813 457 772 416 813 b 224 748 307 813 257 790 l 174 799 b 358 886 220 855 288 886 "},"Ž":{"ha":694,"x_min":0,"x_max":0,"o":"m 369 911 l 339 911 l 168 1046 l 213 1099 l 357 1001 l 512 1096 l 551 1049 m 621 865 l 620 797 l 192 85 l 601 85 b 642 93 620 85 625 96 l 642 -1 l 70 -1 l 70 67 l 506 778 l 86 778 l 86 865 "},"µ":{"ha":694,"x_min":0,"x_max":0,"o":"m 34 -231 b 61 280 35 -71 61 105 l 61 634 l 152 634 l 152 258 b 173 137 152 216 154 176 b 286 60 198 87 242 60 b 410 151 336 60 385 95 b 428 266 426 187 428 223 l 428 634 l 517 634 l 517 161 b 528 93 517 139 516 114 b 572 66 539 75 555 66 b 648 133 619 66 648 133 l 686 62 b 564 -15 659 22 615 -15 b 449 93 505 -15 457 34 b 279 -16 417 27 351 -16 b 121 84 212 -16 150 23 b 120 -231 121 -22 121 -127 l 34 -231 "},"¶":{"ha":694,"x_min":0,"x_max":0,"o":"m 605 -95 l 525 -95 l 525 845 l 420 845 l 420 -95 l 337 -95 l 337 447 b 89 689 196 456 89 564 b 231 895 89 774 139 855 b 431 924 298 924 367 924 l 605 924 "},"·":{"ha":694,"x_min":0,"x_max":0,"o":"m 414 460 b 331 380 414 416 377 380 b 249 460 286 380 249 416 b 331 539 249 503 286 539 b 414 460 377 539 414 503 "},"ž":{"ha":694,"x_min":0,"x_max":0,"o":"m 369 719 l 339 719 l 186 916 l 251 964 l 358 821 l 471 962 l 524 915 m 592 635 l 592 567 l 205 85 l 583 85 b 624 93 602 85 607 96 l 624 -1 l 70 -1 l 70 67 l 463 548 l 98 548 l 98 635 "},"¹":{"ha":694,"x_min":0,"x_max":0,"o":"m 414 427 l 543 427 l 543 351 l 189 351 l 189 427 l 327 427 l 327 768 l 194 735 l 171 778 l 355 879 l 414 879 "},"º":{"ha":694,"x_min":0,"x_max":0,"o":"m 350 864 b 551 617 450 864 551 784 b 341 356 551 437 443 356 b 133 600 231 356 133 449 b 350 864 133 760 234 864 m 217 607 b 343 436 217 490 282 436 b 469 607 403 436 469 487 b 343 786 469 726 407 786 b 217 607 280 786 217 726 m 591 286 l 591 211 l 105 211 l 105 286 "},"»":{"ha":694,"x_min":0,"x_max":0,"o":"m 620 319 l 400 85 l 345 140 l 523 334 l 355 499 l 409 556 l 620 351 m 368 319 l 149 85 l 93 140 l 271 334 l 103 499 l 157 556 l 368 351 "},"Œ":{"ha":694,"x_min":0,"x_max":0,"o":"m 351 867 l 672 867 l 672 780 l 437 780 l 437 496 l 636 496 l 636 408 l 437 408 l 437 86 l 669 86 l 669 0 l 350 0 l 350 43 b 236 -10 322 9 281 -10 b 44 167 168 -10 84 37 b 13 434 39 184 13 271 b 60 738 13 550 22 651 b 237 877 106 845 181 877 b 351 827 280 877 322 859 m 102 450 b 141 171 102 412 102 266 b 249 75 172 95 217 75 b 350 180 297 75 336 118 l 350 674 b 237 797 335 721 300 797 b 129 687 196 797 154 762 b 102 450 120 661 102 597 "},"œ":{"ha":694,"x_min":0,"x_max":0,"o":"m 224 647 b 354 584 276 647 324 624 b 494 647 389 624 440 647 b 662 528 558 647 630 614 b 681 322 684 466 681 392 l 681 307 l 364 307 b 384 144 365 219 369 178 b 512 65 409 88 460 65 b 638 119 552 65 602 78 l 687 59 b 509 -16 640 11 576 -16 b 351 41 452 -16 396 4 b 214 -16 314 6 264 -16 b 47 98 159 -16 88 13 b 8 328 14 166 8 255 b 47 532 8 392 13 468 b 224 647 89 610 159 647 m 598 386 l 598 398 b 577 519 598 439 599 483 b 483 571 556 555 519 571 b 380 496 447 571 402 554 b 366 386 377 488 364 452 m 92 342 b 112 171 92 295 95 226 b 226 69 136 96 184 69 b 295 124 260 69 295 89 b 278 328 295 142 278 207 b 291 503 278 431 291 483 b 223 563 291 540 260 563 b 117 483 184 563 142 536 b 92 342 95 435 92 381 "},"Ÿ":{"ha":694,"x_min":0,"x_max":0,"o":"m 290 1025 b 220 955 290 987 259 955 b 150 1025 181 955 150 987 b 220 1096 150 1064 181 1096 b 290 1025 259 1096 290 1064 m 537 1025 b 467 955 537 987 506 955 b 398 1025 429 955 398 987 b 467 1096 398 1064 429 1096 b 537 1025 506 1096 537 1064 m 150 867 l 362 446 l 554 865 l 657 865 l 411 342 l 411 0 l 306 0 l 306 342 l 40 867 "},"¿":{"ha":694,"x_min":0,"x_max":0,"o":"m 252 844 b 334 924 252 888 288 924 b 416 844 380 924 416 888 b 334 765 416 801 380 765 b 252 844 288 765 252 801 m 608 127 b 340 -18 547 34 444 -18 b 93 227 183 -18 93 97 b 231 451 93 357 185 410 b 291 592 288 502 291 543 l 291 650 l 383 650 l 383 592 b 317 413 383 530 379 481 b 203 220 275 367 203 311 b 349 73 203 138 266 73 b 537 193 420 73 493 120 l 608 127 "},"À":{"ha":694,"x_min":0,"x_max":0,"o":"m 464 974 l 432 917 l 197 1002 l 252 1099 m 326 881 l 337 881 l 671 0 l 571 0 l 475 253 l 200 253 l 116 -1 l 20 -1 m 331 658 l 219 328 l 453 328 "},"Á":{"ha":694,"x_min":0,"x_max":0,"o":"m 483 1002 l 248 917 l 216 974 l 428 1099 m 326 881 l 337 881 l 671 0 l 571 0 l 475 253 l 200 253 l 116 -1 l 20 -1 m 331 658 l 219 328 l 453 328 "},"Â":{"ha":694,"x_min":0,"x_max":0,"o":"m 324 1099 l 354 1099 l 525 964 l 479 911 l 336 1009 l 181 915 l 141 961 m 326 881 l 337 881 l 671 0 l 571 0 l 475 253 l 200 253 l 116 -1 l 20 -1 m 331 658 l 219 328 l 453 328 "},"Ã":{"ha":694,"x_min":0,"x_max":0,"o":"m 120 994 b 277 1114 171 1075 223 1114 b 388 1054 333 1114 370 1073 b 457 1010 411 1031 432 1010 b 538 1084 492 1010 508 1043 l 590 1028 b 453 930 542 969 504 930 b 273 1035 372 930 334 1035 b 182 949 236 1035 215 1003 m 326 881 l 337 881 l 671 0 l 571 0 l 475 253 l 200 253 l 116 -1 l 20 -1 m 331 658 l 219 328 l 453 328 "},"Ä":{"ha":694,"x_min":0,"x_max":0,"o":"m 280 1025 b 210 955 280 987 249 955 b 140 1025 172 955 140 987 b 210 1096 140 1064 172 1096 b 280 1025 249 1096 280 1064 m 527 1025 b 458 955 527 987 496 955 b 388 1025 420 955 388 987 b 458 1096 388 1064 420 1096 b 527 1025 496 1096 527 1064 m 326 881 l 337 881 l 671 0 l 571 0 l 475 253 l 200 253 l 116 -1 l 20 -1 m 331 658 l 219 328 l 453 328 "},"Å":{"ha":694,"x_min":0,"x_max":0,"o":"m 277 983 b 334 919 277 947 303 919 b 392 983 366 919 392 947 b 334 1046 392 1019 366 1046 b 277 983 303 1046 277 1019 m 331 658 l 219 328 l 453 328 m 671 0 l 571 0 l 475 253 l 200 253 l 116 -1 l 20 -1 l 319 860 b 206 982 255 867 206 919 b 333 1104 206 1049 262 1104 b 460 982 404 1104 460 1049 b 345 860 460 918 410 866 "},"Æ":{"ha":694,"x_min":0,"x_max":0,"o":"m 672 867 l 672 780 l 431 780 l 434 496 l 636 496 l 636 408 l 435 408 l 437 86 l 669 86 l 669 0 l 350 0 l 350 235 l 169 235 l 95 0 l 6 0 l 278 867 m 334 780 l 189 315 l 350 315 l 350 780 "},"Ç":{"ha":694,"x_min":0,"x_max":0,"o":"m 385 873 b 651 701 500 873 604 806 l 559 656 b 552 669 552 660 552 668 b 553 680 552 673 553 676 b 548 694 553 686 551 690 b 382 795 513 755 450 795 b 151 436 260 795 151 666 b 390 70 151 202 263 70 b 567 175 458 70 527 109 l 639 128 b 422 -12 591 50 511 -1 l 416 -66 l 439 -67 b 492 -78 456 -68 475 -69 b 533 -143 519 -91 533 -116 b 383 -246 533 -192 485 -246 b 218 -194 329 -246 270 -231 l 253 -137 b 391 -186 297 -172 349 -186 b 454 -152 445 -186 454 -164 b 439 -128 454 -144 450 -134 b 388 -119 424 -119 404 -119 l 348 -119 l 361 -13 b 56 428 223 -2 56 111 b 385 873 56 774 251 873 "},"È":{"ha":694,"x_min":0,"x_max":0,"o":"m 464 974 l 432 917 l 197 1002 l 252 1099 m 612 867 l 612 780 l 174 780 l 174 496 l 536 496 l 536 408 l 174 408 l 174 86 l 609 86 l 609 0 l 82 0 l 82 867 "},"É":{"ha":694,"x_min":0,"x_max":0,"o":"m 507 1002 l 272 917 l 240 974 l 452 1099 m 612 867 l 612 780 l 174 780 l 174 496 l 536 496 l 536 408 l 174 408 l 174 86 l 609 86 l 609 0 l 82 0 l 82 867 "},"Ê":{"ha":694,"x_min":0,"x_max":0,"o":"m 336 1099 l 366 1099 l 537 964 l 491 911 l 348 1009 l 193 915 l 153 961 m 612 867 l 612 780 l 174 780 l 174 496 l 536 496 l 536 408 l 174 408 l 174 86 l 609 86 l 609 0 l 82 0 l 82 867 "},"Ë":{"ha":694,"x_min":0,"x_max":0,"o":"m 290 1025 b 220 955 290 987 259 955 b 150 1025 181 955 150 987 b 220 1096 150 1064 181 1096 b 290 1025 259 1096 290 1064 m 537 1025 b 467 955 537 987 506 955 b 398 1025 429 955 398 987 b 467 1096 398 1064 429 1096 b 537 1025 506 1096 537 1064 m 612 867 l 612 780 l 174 780 l 174 496 l 536 496 l 536 408 l 174 408 l 174 86 l 609 86 l 609 0 l 82 0 l 82 867 "},"Ì":{"ha":694,"x_min":0,"x_max":0,"o":"m 464 974 l 432 917 l 197 1002 l 252 1099 m 551 865 l 551 784 l 380 784 l 380 79 l 560 79 l 560 -1 l 113 -1 l 113 80 l 283 80 l 283 784 l 122 784 l 122 865 "},"Í":{"ha":694,"x_min":0,"x_max":0,"o":"m 507 1002 l 272 917 l 240 974 l 452 1099 m 551 865 l 551 784 l 380 784 l 380 79 l 560 79 l 560 -1 l 113 -1 l 113 80 l 283 80 l 283 784 l 122 784 l 122 865 "},"Î":{"ha":694,"x_min":0,"x_max":0,"o":"m 322 1099 l 352 1099 l 524 964 l 478 911 l 334 1009 l 180 915 l 140 961 m 551 865 l 551 784 l 380 784 l 380 79 l 560 79 l 560 -1 l 113 -1 l 113 80 l 283 80 l 283 784 l 122 784 l 122 865 "},"Ï":{"ha":694,"x_min":0,"x_max":0,"o":"m 285 1025 b 215 955 285 987 254 955 b 145 1025 176 955 145 987 b 215 1096 145 1064 176 1096 b 285 1025 254 1096 285 1064 m 532 1025 b 463 955 532 987 501 955 b 393 1025 424 955 393 987 b 463 1096 393 1064 424 1096 b 532 1025 501 1096 532 1064 m 551 865 l 551 784 l 380 784 l 380 79 l 560 79 l 560 -1 l 113 -1 l 113 80 l 283 80 l 283 784 l 122 784 l 122 865 "},"Ð":{"ha":694,"x_min":0,"x_max":0,"o":"m 303 865 b 499 814 378 865 438 859 b 647 438 603 737 647 585 b 443 25 647 253 576 87 b 286 -1 394 3 348 -1 l 109 -1 l 109 418 l 42 418 l 42 499 l 109 499 l 109 865 m 199 79 l 282 79 b 426 115 331 79 377 82 b 554 426 510 171 554 289 b 481 701 554 522 533 629 b 297 784 422 782 351 784 l 199 784 l 199 499 l 344 499 l 344 418 l 199 418 "},"Ñ":{"ha":694,"x_min":0,"x_max":0,"o":"m 126 994 b 283 1114 177 1075 229 1114 b 394 1054 339 1114 376 1073 b 463 1010 417 1031 438 1010 b 544 1084 498 1010 514 1043 l 596 1028 b 459 930 548 969 510 930 b 279 1035 378 930 340 1035 b 188 949 242 1035 221 1003 m 70 865 l 164 865 l 527 224 l 527 867 l 630 867 b 626 849 632 859 628 852 b 621 829 623 843 621 839 l 621 -1 l 544 -1 l 163 681 l 163 0 l 70 0 "},"Ò":{"ha":694,"x_min":0,"x_max":0,"o":"m 464 974 l 432 917 l 197 1002 l 252 1099 m 654 431 b 603 154 654 355 649 247 b 353 -13 546 39 446 -13 b 41 434 221 -13 41 94 b 352 875 41 774 223 875 b 601 712 446 875 545 823 b 654 431 649 619 654 512 m 348 784 b 137 447 257 784 137 705 b 353 81 137 171 256 81 b 519 199 412 81 479 114 b 557 418 554 273 557 362 b 524 647 557 491 553 574 b 348 784 483 747 409 784 "},"Ó":{"ha":694,"x_min":0,"x_max":0,"o":"m 507 1002 l 272 917 l 240 974 l 452 1099 m 654 431 b 603 154 654 355 649 247 b 353 -13 546 39 446 -13 b 41 434 221 -13 41 94 b 352 875 41 774 223 875 b 601 712 446 875 545 823 b 654 431 649 619 654 512 m 348 784 b 137 447 257 784 137 705 b 353 81 137 171 256 81 b 519 199 412 81 479 114 b 557 418 554 273 557 362 b 524 647 557 491 553 574 b 348 784 483 747 409 784 "},"Ô":{"ha":694,"x_min":0,"x_max":0,"o":"m 339 1099 l 369 1099 l 541 964 l 495 911 l 351 1009 l 197 915 l 157 961 m 654 431 b 603 154 654 355 649 247 b 353 -13 546 39 446 -13 b 41 434 221 -13 41 94 b 352 875 41 774 223 875 b 601 712 446 875 545 823 b 654 431 649 619 654 512 m 348 784 b 137 447 257 784 137 705 b 353 81 137 171 256 81 b 519 199 412 81 479 114 b 557 418 554 273 557 362 b 524 647 557 491 553 574 b 348 784 483 747 409 784 "},"Õ":{"ha":694,"x_min":0,"x_max":0,"o":"m 126 994 b 283 1114 177 1075 229 1114 b 394 1054 339 1114 376 1073 b 463 1010 417 1031 438 1010 b 544 1084 498 1010 514 1043 l 596 1028 b 459 930 548 969 510 930 b 279 1035 378 930 340 1035 b 188 949 242 1035 221 1003 m 654 431 b 603 154 654 355 649 247 b 353 -13 546 39 446 -13 b 41 434 221 -13 41 94 b 352 875 41 774 223 875 b 601 712 446 875 545 823 b 654 431 649 619 654 512 m 348 784 b 137 447 257 784 137 705 b 353 81 137 171 256 81 b 519 199 412 81 479 114 b 557 418 554 273 557 362 b 524 647 557 491 553 574 b 348 784 483 747 409 784 "},"Ö":{"ha":694,"x_min":0,"x_max":0,"o":"m 290 1025 b 220 955 290 987 259 955 b 150 1025 181 955 150 987 b 220 1096 150 1064 181 1096 b 290 1025 259 1096 290 1064 m 537 1025 b 467 955 537 987 506 955 b 398 1025 429 955 398 987 b 467 1096 398 1064 429 1096 b 537 1025 506 1096 537 1064 m 654 431 b 603 154 654 355 649 247 b 353 -13 546 39 446 -13 b 41 434 221 -13 41 94 b 352 875 41 774 223 875 b 601 712 446 875 545 823 b 654 431 649 619 654 512 m 348 784 b 137 447 257 784 137 705 b 353 81 137 171 256 81 b 519 199 412 81 479 114 b 557 418 554 273 557 362 b 524 647 557 491 553 574 b 348 784 483 747 409 784 "},"×":{"ha":694,"x_min":0,"x_max":0,"o":"m 597 638 l 417 452 l 593 265 l 529 201 l 353 386 l 180 207 l 117 268 l 292 451 l 117 635 l 183 699 l 356 516 l 531 699 "},"Ø":{"ha":694,"x_min":0,"x_max":0,"o":"m 348 784 b 137 447 257 784 137 705 b 184 201 137 338 155 258 l 467 734 b 348 784 430 770 387 784 m 654 431 b 603 154 654 355 649 247 b 353 -13 546 39 446 -13 b 192 42 302 -13 244 3 l 122 -87 l 50 -50 l 131 102 b 41 434 78 172 41 279 b 352 875 41 774 223 875 b 513 820 407 875 464 857 l 577 940 l 651 900 l 574 757 b 601 712 584 743 593 728 b 654 431 649 619 654 512 m 238 128 b 353 81 274 95 315 81 b 519 199 412 81 479 114 b 557 418 554 273 557 362 b 524 647 557 491 553 574 l 520 656 "},"Ù":{"ha":694,"x_min":0,"x_max":0,"o":"m 464 974 l 432 917 l 197 1002 l 252 1099 m 179 865 b 180 858 180 863 180 861 b 171 839 180 850 175 844 b 165 821 166 832 165 827 l 165 297 b 186 170 165 254 166 212 b 351 67 217 103 283 67 b 516 168 419 67 484 102 b 538 301 537 213 538 256 l 538 865 l 630 865 l 630 303 b 596 120 630 240 629 180 b 349 -16 547 29 449 -16 b 103 119 247 -16 151 30 b 70 298 71 178 70 237 l 70 298 l 70 865 "},"Ú":{"ha":694,"x_min":0,"x_max":0,"o":"m 507 1002 l 272 917 l 240 974 l 452 1099 m 179 865 b 180 858 180 863 180 861 b 171 839 180 850 175 844 b 165 821 166 832 165 827 l 165 297 b 186 170 165 254 166 212 b 351 67 217 103 283 67 b 516 168 419 67 484 102 b 538 301 537 213 538 256 l 538 865 l 630 865 l 630 303 b 596 120 630 240 629 180 b 349 -16 547 29 449 -16 b 103 119 247 -16 151 30 b 70 298 71 178 70 237 l 70 298 l 70 865 "},"Û":{"ha":694,"x_min":0,"x_max":0,"o":"m 339 1099 l 369 1099 l 541 964 l 495 911 l 351 1009 l 197 915 l 157 961 m 179 865 b 180 858 180 863 180 861 b 171 839 180 850 175 844 b 165 821 166 832 165 827 l 165 297 b 186 170 165 254 166 212 b 351 67 217 103 283 67 b 516 168 419 67 484 102 b 538 301 537 213 538 256 l 538 865 l 630 865 l 630 303 b 596 120 630 240 629 180 b 349 -16 547 29 449 -16 b 103 119 247 -16 151 30 b 70 298 71 178 70 237 l 70 298 l 70 865 "},"Ü":{"ha":694,"x_min":0,"x_max":0,"o":"m 302 1025 b 232 955 302 987 271 955 b 162 1025 193 955 162 987 b 232 1096 162 1064 193 1096 b 302 1025 271 1096 302 1064 m 549 1025 b 479 955 549 987 518 955 b 410 1025 441 955 410 987 b 479 1096 410 1064 441 1096 b 549 1025 518 1096 549 1064 m 179 865 b 180 858 180 863 180 861 b 171 839 180 850 175 844 b 165 821 166 832 165 827 l 165 297 b 186 170 165 254 166 212 b 351 67 217 103 283 67 b 516 168 419 67 484 102 b 538 301 537 213 538 256 l 538 865 l 630 865 l 630 303 b 596 120 630 240 629 180 b 349 -16 547 29 449 -16 b 103 119 247 -16 151 30 b 70 298 71 178 70 237 l 70 298 l 70 865 "},"Ý":{"ha":694,"x_min":0,"x_max":0,"o":"m 507 1002 l 272 917 l 240 974 l 452 1099 m 150 867 l 362 446 l 554 865 l 657 865 l 411 342 l 411 0 l 306 0 l 306 342 l 40 867 "},"Þ":{"ha":694,"x_min":0,"x_max":0,"o":"m 191 865 b 192 860 191 864 192 862 b 184 842 192 852 187 847 b 180 827 180 836 180 832 l 180 702 l 345 702 b 509 673 401 702 455 701 b 633 459 591 631 633 546 b 511 247 633 371 591 288 b 352 219 458 221 406 219 l 180 219 l 180 0 l 82 0 l 82 865 m 180 304 l 356 304 b 456 322 390 304 423 305 b 533 454 507 348 533 399 b 451 593 533 511 505 566 b 345 611 416 610 381 611 l 180 611 "},"ß":{"ha":694,"x_min":0,"x_max":0,"o":"m 77 587 b 106 779 77 651 78 715 b 332 929 148 875 238 929 b 584 685 471 929 584 817 b 473 499 584 605 542 534 b 645 251 578 466 645 366 b 390 -14 645 100 532 -14 b 246 29 339 -14 289 1 l 295 107 b 388 74 321 86 354 74 b 553 251 477 74 553 150 b 461 421 553 324 514 388 b 339 448 422 445 384 448 l 297 448 l 297 527 l 337 527 b 401 538 358 527 377 528 b 489 687 453 562 489 622 b 338 849 489 778 420 849 b 212 780 292 849 244 827 b 171 590 172 722 171 651 l 171 0 l 77 0 "},"à":{"ha":694,"x_min":0,"x_max":0,"o":"m 460 767 l 391 725 l 251 912 l 338 971 m 126 560 b 352 649 185 621 267 649 b 573 543 451 649 531 612 b 604 393 602 494 604 445 l 604 0 l 509 0 l 509 70 b 282 -16 440 13 360 -16 b 68 164 149 -16 68 71 b 214 345 68 234 114 308 b 488 374 294 375 394 374 l 508 374 l 508 397 b 488 506 508 430 509 471 b 357 567 470 535 432 567 b 175 496 298 567 227 551 l 126 560 m 489 297 b 281 288 423 297 338 301 b 169 171 201 269 169 217 b 302 61 169 114 218 61 b 469 136 385 61 446 111 b 512 255 512 181 512 222 l 512 297 "},"á":{"ha":694,"x_min":0,"x_max":0,"o":"m 493 912 l 352 725 l 283 767 l 405 971 m 126 560 b 352 649 185 621 267 649 b 573 543 451 649 531 612 b 604 393 602 494 604 445 l 604 0 l 509 0 l 509 70 b 282 -16 440 13 360 -16 b 68 164 149 -16 68 71 b 214 345 68 234 114 308 b 488 374 294 375 394 374 l 508 374 l 508 397 b 488 506 508 430 509 471 b 357 567 470 535 432 567 b 175 496 298 567 227 551 l 126 560 m 489 297 b 281 288 423 297 338 301 b 169 171 201 269 169 217 b 302 61 169 114 218 61 b 469 136 385 61 446 111 b 512 255 512 181 512 222 l 512 297 "},"â":{"ha":694,"x_min":0,"x_max":0,"o":"m 350 952 l 380 952 l 533 755 l 469 707 l 361 850 l 248 708 l 195 756 m 126 560 b 352 649 185 621 267 649 b 573 543 451 649 531 612 b 604 393 602 494 604 445 l 604 0 l 509 0 l 509 70 b 282 -16 440 13 360 -16 b 68 164 149 -16 68 71 b 214 345 68 234 114 308 b 488 374 294 375 394 374 l 508 374 l 508 397 b 488 506 508 430 509 471 b 357 567 470 535 432 567 b 175 496 298 567 227 551 l 126 560 m 489 297 b 281 288 423 297 338 301 b 169 171 201 269 169 217 b 302 61 169 114 218 61 b 469 136 385 61 446 111 b 512 255 512 181 512 222 l 512 297 "},"ã":{"ha":694,"x_min":0,"x_max":0,"o":"m 139 819 b 296 939 190 900 242 939 b 407 879 352 939 390 898 b 477 835 430 856 451 835 b 557 909 511 835 527 868 l 609 853 b 472 755 561 794 523 755 b 292 860 391 755 353 860 b 201 774 255 860 235 828 m 126 560 b 352 649 185 621 267 649 b 573 543 451 649 531 612 b 604 393 602 494 604 445 l 604 0 l 509 0 l 509 70 b 282 -16 440 13 360 -16 b 68 164 149 -16 68 71 b 214 345 68 234 114 308 b 488 374 294 375 394 374 l 508 374 l 508 397 b 488 506 508 430 509 471 b 357 567 470 535 432 567 b 175 496 298 567 227 551 l 126 560 m 489 297 b 281 288 423 297 338 301 b 169 171 201 269 169 217 b 302 61 169 114 218 61 b 469 136 385 61 446 111 b 512 255 512 181 512 222 l 512 297 "},"ä":{"ha":694,"x_min":0,"x_max":0,"o":"m 314 853 b 244 783 314 814 283 783 b 174 853 205 783 174 814 b 244 923 174 892 205 923 b 314 853 283 923 314 892 m 561 853 b 491 783 561 814 530 783 b 422 853 453 783 422 814 b 491 923 422 892 453 923 b 561 853 530 923 561 892 m 126 560 b 352 649 185 621 267 649 b 573 543 451 649 531 612 b 604 393 602 494 604 445 l 604 0 l 509 0 l 509 70 b 282 -16 440 13 360 -16 b 68 164 149 -16 68 71 b 214 345 68 234 114 308 b 488 374 294 375 394 374 l 508 374 l 508 397 b 488 506 508 430 509 471 b 357 567 470 535 432 567 b 175 496 298 567 227 551 l 126 560 m 489 297 b 281 288 423 297 338 301 b 169 171 201 269 169 217 b 302 61 169 114 218 61 b 469 136 385 61 446 111 b 512 255 512 181 512 222 l 512 297 "},"å":{"ha":694,"x_min":0,"x_max":0,"o":"m 483 840 b 356 718 483 773 427 718 b 229 840 285 718 229 773 b 356 962 229 907 285 962 b 483 840 427 962 483 907 m 300 841 b 357 778 300 806 326 778 b 415 842 388 778 415 805 b 357 905 415 877 389 905 b 300 841 326 905 300 877 m 126 560 b 352 649 185 621 267 649 b 573 543 451 649 531 612 b 604 393 602 494 604 445 l 604 0 l 509 0 l 509 70 b 282 -16 440 13 360 -16 b 68 164 149 -16 68 71 b 214 345 68 234 114 308 b 488 374 294 375 394 374 l 508 374 l 508 397 b 488 506 508 430 509 471 b 357 567 470 535 432 567 b 175 496 298 567 227 551 l 126 560 m 489 297 b 281 288 423 297 338 301 b 169 171 201 269 169 217 b 302 61 169 114 218 61 b 469 136 385 61 446 111 b 512 255 512 181 512 222 l 512 297 "},"æ":{"ha":694,"x_min":0,"x_max":0,"o":"m 43 572 b 204 648 83 621 142 648 b 358 562 271 648 328 615 b 505 649 389 616 446 649 b 644 568 555 649 610 624 b 681 373 681 507 681 435 l 681 320 l 392 308 l 392 243 b 406 152 392 210 393 182 b 535 66 430 98 481 66 b 638 116 576 66 614 84 l 687 59 b 528 -16 648 12 589 -16 b 354 80 457 -16 392 21 b 197 -16 324 21 263 -16 b 14 172 97 -16 14 67 b 141 359 14 243 54 320 b 276 386 193 383 242 385 l 307 387 l 307 423 b 298 494 307 449 306 472 b 197 571 281 542 240 571 b 92 511 158 571 118 547 l 43 572 m 277 303 b 170 283 241 302 205 301 b 103 177 124 260 103 217 b 206 69 103 117 150 69 b 298 134 244 69 282 91 b 307 252 310 167 307 203 l 307 304 m 601 396 l 601 423 b 588 509 601 452 600 481 b 503 571 571 548 539 571 b 418 519 469 571 438 549 b 392 411 394 482 392 445 l 392 387 "},"ç":{"ha":694,"x_min":0,"x_max":0,"o":"m 563 447 b 555 479 552 455 560 468 b 390 562 551 487 499 562 b 181 327 274 562 181 472 b 399 75 181 179 275 75 b 567 152 462 75 524 104 l 624 85 b 422 -14 571 28 499 -7 l 416 -66 l 439 -67 b 492 -78 456 -68 475 -69 b 533 -143 519 -91 533 -116 b 383 -246 533 -192 485 -246 b 218 -194 329 -246 270 -231 l 253 -137 b 391 -186 297 -172 349 -186 b 454 -152 445 -186 454 -164 b 439 -128 454 -144 450 -134 b 388 -119 424 -119 404 -119 l 348 -119 l 361 -14 b 78 317 197 0 78 136 b 397 647 78 507 210 647 b 634 530 499 647 584 603 "},"è":{"ha":694,"x_min":0,"x_max":0,"o":"m 460 767 l 391 725 l 251 912 l 338 971 m 359 650 b 610 424 463 650 582 595 b 615 303 617 388 619 347 l 165 303 b 380 66 172 113 295 66 b 544 138 443 66 503 92 l 599 84 b 372 -15 545 19 463 -15 b 67 310 200 -15 67 99 b 359 650 67 542 208 650 m 517 380 b 352 573 529 483 455 573 b 168 380 284 573 188 530 "},"é":{"ha":694,"x_min":0,"x_max":0,"o":"m 493 912 l 352 725 l 283 767 l 405 971 m 359 650 b 610 424 463 650 582 595 b 615 303 617 388 619 347 l 165 303 b 380 66 172 113 295 66 b 544 138 443 66 503 92 l 599 84 b 372 -15 545 19 463 -15 b 67 310 200 -15 67 99 b 359 650 67 542 208 650 m 517 380 b 352 573 529 483 455 573 b 168 380 284 573 188 530 "},"ê":{"ha":694,"x_min":0,"x_max":0,"o":"m 340 952 l 370 952 l 524 755 l 459 707 l 351 850 l 239 708 l 186 756 m 359 650 b 610 424 463 650 582 595 b 615 303 617 388 619 347 l 165 303 b 380 66 172 113 295 66 b 544 138 443 66 503 92 l 599 84 b 372 -15 545 19 463 -15 b 67 310 200 -15 67 99 b 359 650 67 542 208 650 m 517 380 b 352 573 529 483 455 573 b 168 380 284 573 188 530 "},"ë":{"ha":694,"x_min":0,"x_max":0,"o":"m 298 853 b 228 783 298 814 267 783 b 158 853 190 783 158 814 b 228 923 158 892 190 923 b 298 853 267 923 298 892 m 545 853 b 476 783 545 814 514 783 b 406 853 438 783 406 814 b 476 923 406 892 438 923 b 545 853 514 923 545 892 m 359 650 b 610 424 463 650 582 595 b 615 303 617 388 619 347 l 165 303 b 380 66 172 113 295 66 b 544 138 443 66 503 92 l 599 84 b 372 -15 545 19 463 -15 b 67 310 200 -15 67 99 b 359 650 67 542 208 650 m 517 380 b 352 573 529 483 455 573 b 168 380 284 573 188 530 "},"ì":{"ha":694,"x_min":0,"x_max":0,"o":"m 388 767 l 319 725 l 179 912 l 266 971 m 402 635 l 402 80 l 550 80 l 550 0 l 139 0 l 139 80 l 301 80 l 301 554 l 147 554 l 147 635 "},"í":{"ha":694,"x_min":0,"x_max":0,"o":"m 481 912 l 340 725 l 271 767 l 393 971 m 402 635 l 402 80 l 550 80 l 550 0 l 139 0 l 139 80 l 301 80 l 301 554 l 147 554 l 147 635 "},"î":{"ha":694,"x_min":0,"x_max":0,"o":"m 312 952 l 342 952 l 495 755 l 430 707 l 322 850 l 210 708 l 157 756 m 402 635 l 402 80 l 550 80 l 550 0 l 139 0 l 139 80 l 301 80 l 301 554 l 147 554 l 147 635 "},"ï":{"ha":694,"x_min":0,"x_max":0,"o":"m 282 853 b 212 783 282 814 250 783 b 141 853 173 783 141 814 b 212 923 141 892 173 923 b 282 853 250 923 282 892 m 529 853 b 459 783 529 814 497 783 b 390 853 421 783 390 814 b 459 923 390 892 421 923 b 529 853 497 923 529 892 m 402 635 l 402 80 l 550 80 l 550 0 l 139 0 l 139 80 l 301 80 l 301 554 l 147 554 l 147 635 "},"ð":{"ha":694,"x_min":0,"x_max":0,"o":"m 354 563 b 162 323 260 563 162 486 b 355 70 162 161 255 70 b 538 322 433 70 538 129 b 354 563 538 515 426 563 m 482 792 b 639 352 567 696 639 554 b 586 113 639 277 631 188 b 356 -17 534 29 448 -17 b 56 309 195 -17 56 118 b 345 649 56 500 191 649 b 512 577 410 649 470 622 b 393 767 484 647 443 712 l 216 717 l 191 783 l 335 822 b 193 911 292 858 245 888 l 306 934 b 427 847 341 914 384 885 l 577 888 l 601 826 l 482 792 "},"ñ":{"ha":694,"x_min":0,"x_max":0,"o":"m 119 819 b 276 939 170 900 222 939 b 387 879 332 939 369 898 b 456 835 409 856 430 835 b 537 909 491 835 507 868 l 589 853 b 451 755 541 794 503 755 b 272 860 371 755 333 860 b 181 774 235 860 214 828 m 95 634 l 197 634 l 197 523 b 407 650 243 593 321 650 b 576 538 480 650 545 609 b 599 385 599 487 599 434 l 599 385 l 599 0 l 501 0 l 501 382 b 466 523 501 427 501 482 b 380 563 444 550 412 563 b 228 475 313 563 252 507 b 197 366 202 439 197 408 l 197 0 l 95 0 "},"ò":{"ha":694,"x_min":0,"x_max":0,"o":"m 460 767 l 391 725 l 251 912 l 338 971 m 639 314 b 354 -17 639 104 504 -17 b 56 312 194 -17 56 119 b 357 648 56 508 195 648 b 639 314 501 648 639 533 m 350 563 b 162 321 253 563 162 477 b 354 70 162 164 253 70 b 538 310 447 70 538 151 b 350 563 538 484 441 563 "},"ó":{"ha":694,"x_min":0,"x_max":0,"o":"m 493 912 l 352 725 l 283 767 l 405 971 m 639 314 b 354 -17 639 104 504 -17 b 56 312 194 -17 56 119 b 357 648 56 508 195 648 b 639 314 501 648 639 533 m 350 563 b 162 321 253 563 162 477 b 354 70 162 164 253 70 b 538 310 447 70 538 151 b 350 563 538 484 441 563 "},"ô":{"ha":694,"x_min":0,"x_max":0,"o":"m 340 952 l 370 952 l 524 755 l 459 707 l 351 850 l 239 708 l 186 756 m 639 314 b 354 -17 639 104 504 -17 b 56 312 194 -17 56 119 b 357 648 56 508 195 648 b 639 314 501 648 639 533 m 350 563 b 162 321 253 563 162 477 b 354 70 162 164 253 70 b 538 310 447 70 538 151 b 350 563 538 484 441 563 "},"õ":{"ha":694,"x_min":0,"x_max":0,"o":"m 126 819 b 283 939 177 900 229 939 b 394 879 339 939 376 898 b 463 835 417 856 438 835 b 544 909 498 835 514 868 l 596 853 b 459 755 548 794 510 755 b 279 860 378 755 340 860 b 188 774 242 860 221 828 m 639 314 b 354 -17 639 104 504 -17 b 56 312 194 -17 56 119 b 357 648 56 508 195 648 b 639 314 501 648 639 533 m 350 563 b 162 321 253 563 162 477 b 354 70 162 164 253 70 b 538 310 447 70 538 151 b 350 563 538 484 441 563 "},"ö":{"ha":694,"x_min":0,"x_max":0,"o":"m 296 853 b 226 783 296 814 265 783 b 156 853 187 783 156 814 b 226 923 156 892 187 923 b 296 853 265 923 296 892 m 543 853 b 473 783 543 814 512 783 b 404 853 435 783 404 814 b 473 923 404 892 435 923 b 543 853 512 923 543 892 m 639 314 b 354 -17 639 104 504 -17 b 56 312 194 -17 56 119 b 357 648 56 508 195 648 b 639 314 501 648 639 533 m 350 563 b 162 321 253 563 162 477 b 354 70 162 164 253 70 b 538 310 447 70 538 151 b 350 563 538 484 441 563 "},"÷":{"ha":694,"x_min":0,"x_max":0,"o":"m 598 483 l 598 391 l 98 391 l 98 483 m 417 648 b 355 586 417 614 389 586 b 292 648 320 586 292 614 b 355 711 292 683 320 711 b 417 648 389 711 417 683 m 417 221 b 355 158 417 186 389 158 b 292 221 320 158 292 186 b 355 283 292 255 320 283 b 417 221 389 283 417 255 "},"ø":{"ha":694,"x_min":0,"x_max":0,"o":"m 350 563 b 162 321 253 563 162 477 b 208 153 162 252 180 195 l 422 546 b 350 563 399 558 374 563 m 639 314 b 354 -17 639 104 504 -17 b 225 14 308 -17 265 -6 l 169 -89 l 97 -52 l 159 62 b 56 312 96 120 56 208 b 357 648 56 508 195 648 b 465 626 394 648 431 641 l 517 720 l 591 681 l 535 580 b 639 314 597 524 639 435 m 269 94 b 354 70 295 78 324 70 b 538 310 447 70 538 151 b 487 491 538 390 518 450 "},"ù":{"ha":694,"x_min":0,"x_max":0,"o":"m 460 767 l 391 725 l 251 912 l 338 971 m 188 634 l 188 280 b 211 144 188 238 188 188 b 332 66 236 93 282 66 b 478 160 393 66 449 107 b 503 285 500 199 503 236 l 503 634 l 604 634 l 604 58 b 611 0 604 39 605 19 l 506 0 b 503 49 503 16 503 33 l 505 97 b 309 -16 463 27 388 -16 b 111 114 226 -16 149 30 b 86 280 87 170 86 225 l 87 634 "},"ú":{"ha":694,"x_min":0,"x_max":0,"o":"m 493 912 l 352 725 l 283 767 l 405 971 m 188 634 l 188 280 b 211 144 188 238 188 188 b 332 66 236 93 282 66 b 478 160 393 66 449 107 b 503 285 500 199 503 236 l 503 634 l 604 634 l 604 58 b 611 0 604 39 605 19 l 506 0 b 503 49 503 16 503 33 l 505 97 b 309 -16 463 27 388 -16 b 111 114 226 -16 149 30 b 86 280 87 170 86 225 l 87 634 "},"û":{"ha":694,"x_min":0,"x_max":0,"o":"m 340 952 l 370 952 l 524 755 l 459 707 l 351 850 l 239 708 l 186 756 m 188 634 l 188 280 b 211 144 188 238 188 188 b 332 66 236 93 282 66 b 478 160 393 66 449 107 b 503 285 500 199 503 236 l 503 634 l 604 634 l 604 58 b 611 0 604 39 605 19 l 506 0 b 503 49 503 16 503 33 l 505 97 b 309 -16 463 27 388 -16 b 111 114 226 -16 149 30 b 86 280 87 170 86 225 l 87 634 "},"ü":{"ha":694,"x_min":0,"x_max":0,"o":"m 296 853 b 226 783 296 814 265 783 b 156 853 187 783 156 814 b 226 923 156 892 187 923 b 296 853 265 923 296 892 m 543 853 b 473 783 543 814 512 783 b 404 853 435 783 404 814 b 473 923 404 892 435 923 b 543 853 512 923 543 892 m 188 634 l 188 280 b 211 144 188 238 188 188 b 332 66 236 93 282 66 b 478 160 393 66 449 107 b 503 285 500 199 503 236 l 503 634 l 604 634 l 604 58 b 611 0 604 39 605 19 l 506 0 b 503 49 503 16 503 33 l 505 97 b 309 -16 463 27 388 -16 b 111 114 226 -16 149 30 b 86 280 87 170 86 225 l 87 634 "},"ý":{"ha":694,"x_min":0,"x_max":0,"o":"m 493 912 l 352 725 l 283 767 l 405 971 m 188 634 b 182 604 189 622 182 615 b 185 593 182 600 183 597 l 370 126 l 491 466 b 539 635 511 521 529 577 l 644 635 b 580 452 625 573 603 512 l 382 -72 b 328 -172 369 -108 355 -141 b 169 -241 285 -220 226 -241 b 31 -188 116 -241 68 -223 l 83 -98 b 94 -121 91 -105 90 -114 b 168 -159 97 -128 121 -159 b 257 -118 198 -159 231 -146 b 301 -44 277 -97 290 -70 l 321 2 l 64 634 "},"þ":{"ha":694,"x_min":0,"x_max":0,"o":"m 194 923 b 185 877 195 904 185 900 l 185 537 b 385 648 228 606 304 648 b 642 324 510 648 642 548 b 376 -17 642 92 506 -17 b 186 84 299 -17 228 21 l 186 -231 l 84 -231 l 84 923 m 348 563 b 201 471 284 563 225 528 b 184 346 187 438 184 400 b 203 159 184 254 184 202 b 348 72 228 102 288 72 b 538 304 407 72 538 104 b 348 563 538 534 404 563 "},"ÿ":{"ha":694,"x_min":0,"x_max":0,"o":"m 296 853 b 226 783 296 814 265 783 b 156 853 187 783 156 814 b 226 923 156 892 187 923 b 296 853 265 923 296 892 m 543 853 b 473 783 543 814 512 783 b 404 853 435 783 404 814 b 473 923 404 892 435 923 b 543 853 512 923 543 892 m 188 634 b 182 604 189 622 182 615 b 185 593 182 600 183 597 l 370 126 l 491 466 b 539 635 511 521 529 577 l 644 635 b 580 452 625 573 603 512 l 382 -72 b 328 -172 369 -108 355 -141 b 169 -241 285 -220 226 -241 b 31 -188 116 -241 68 -223 l 83 -98 b 94 -121 91 -105 90 -114 b 168 -159 97 -128 121 -159 b 257 -118 198 -159 231 -146 b 301 -44 277 -97 290 -70 l 321 2 l 64 634 "},"−":{"ha":694,"x_min":0,"x_max":0,"o":"m 633 477 l 633 392 l 62 392 l 62 477 "},"’":{"ha":694,"x_min":0,"x_max":0,"o":"m 424 771 b 277 509 424 698 374 608 l 229 551 b 299 638 262 582 285 615 b 319 696 306 649 319 673 b 287 745 319 724 299 737 b 248 806 275 753 248 769 b 328 886 248 848 282 886 b 424 771 377 886 424 842 "},"‘":{"ha":694,"x_min":0,"x_max":0,"o":"m 253 625 b 401 886 253 697 304 787 l 448 844 b 379 757 416 813 392 780 b 358 699 372 746 358 722 b 391 650 358 671 379 658 b 429 589 403 642 429 626 b 349 509 429 547 395 509 b 253 625 300 509 253 554 "},"ˋ":{"ha":694,"x_min":0,"x_max":0,"o":"m 460 767 l 391 725 l 251 912 l 338 971 "},"´":{"ha":694,"x_min":0,"x_max":0,"o":"m 493 912 l 352 725 l 283 767 l 405 971 "},"ˆ":{"ha":694,"x_min":0,"x_max":0,"o":"m 340 952 l 370 952 l 524 755 l 459 707 l 351 850 l 239 708 l 186 756 "},"˜":{"ha":694,"x_min":0,"x_max":0,"o":"m 126 819 b 283 939 177 900 229 939 b 394 879 339 939 376 898 b 463 835 417 856 438 835 b 544 909 498 835 514 868 l 596 853 b 459 755 548 794 510 755 b 279 860 378 755 340 860 b 188 774 242 860 221 828 "},"ˉ":{"ha":694,"x_min":0,"x_max":0,"o":"m 524 863 l 524 785 l 171 785 l 171 863 "},"˘":{"ha":694,"x_min":0,"x_max":0,"o":"m 191 898 b 347 799 222 848 278 799 b 512 897 405 799 464 835 l 551 839 b 347 728 504 775 431 728 b 140 834 271 728 195 768 l 191 898 "},"˙":{"ha":694,"x_min":0,"x_max":0,"o":"m 354 911 b 426 840 393 911 426 879 b 354 768 426 800 393 768 b 282 840 314 768 282 800 b 354 911 282 879 314 911 "},"¨":{"ha":694,"x_min":0,"x_max":0,"o":"m 296 853 b 226 783 296 814 265 783 b 156 853 187 783 156 814 b 226 923 156 892 187 923 b 296 853 265 923 296 892 m 543 853 b 473 783 543 814 512 783 b 404 853 435 783 404 814 b 473 923 404 892 435 923 b 543 853 512 923 543 892 "},"˝":{"ha":694,"x_min":0,"x_max":0,"o":"m 385 912 l 245 725 l 175 767 l 297 971 m 601 912 l 460 725 l 391 767 l 513 971 "},"˚":{"ha":694,"x_min":0,"x_max":0,"o":"m 483 840 b 356 718 483 773 427 718 b 229 840 285 718 229 773 b 356 962 229 907 285 962 b 483 840 427 962 483 907 m 300 841 b 357 778 300 806 326 778 b 415 842 388 778 415 805 b 357 905 415 877 389 905 b 300 841 326 905 300 877 "},"¸":{"ha":694,"x_min":0,"x_max":0,"o":"m 423 0 l 416 -66 l 439 -67 b 492 -78 456 -68 475 -69 b 533 -143 519 -91 533 -116 b 383 -246 533 -192 485 -246 b 218 -194 329 -246 270 -231 l 253 -137 b 391 -186 297 -172 349 -186 b 454 -152 445 -186 454 -164 b 439 -128 454 -144 450 -134 b 388 -119 424 -119 404 -119 l 348 -119 l 363 0 "},"˛":{"ha":694,"x_min":0,"x_max":0,"o":"m 586 0 b 493 -93 539 -42 505 -80 b 470 -141 484 -104 470 -121 b 511 -181 470 -163 485 -181 b 544 -173 519 -181 529 -179 b 589 -149 566 -166 580 -156 l 589 -212 b 493 -245 561 -236 527 -245 b 384 -160 421 -245 384 -206 b 494 0 384 -115 422 -59 "},"ˇ":{"ha":694,"x_min":0,"x_max":0,"o":"m 369 719 l 339 719 l 186 916 l 251 964 l 358 821 l 471 962 l 524 915 "},"ı":{"ha":694,"x_min":0,"x_max":0,"o":"m 402 635 l 402 80 l 550 80 l 550 0 l 139 0 l 139 80 l 301 80 l 301 554 l 147 554 l 147 635 "},"‹":{"ha":694,"x_min":0,"x_max":0,"o":"m 412 556 l 466 499 l 298 334 l 476 140 l 421 85 l 201 319 l 201 351 "},"›":{"ha":694,"x_min":0,"x_max":0,"o":"m 476 319 l 257 85 l 201 140 l 379 334 l 211 499 l 265 556 l 476 351 "},"ō":{"ha":694,"x_min":0,"x_max":0,"o":"m 524 863 l 524 785 l 171 785 l 171 863 m 639 314 b 354 -17 639 104 504 -17 b 56 312 194 -17 56 119 b 357 648 56 508 195 648 b 639 314 501 648 639 533 m 350 563 b 162 321 253 563 162 477 b 354 70 162 164 253 70 b 538 310 447 70 538 151 b 350 563 538 484 441 563 "},"¤":{"ha":694,"x_min":0,"x_max":0,"o":"m 144 732 l 222 654 b 348 695 258 680 301 695 b 473 655 395 695 438 680 l 550 732 l 599 683 l 523 606 b 564 479 549 571 564 527 b 523 353 564 432 549 389 l 599 277 l 550 228 l 474 304 b 348 264 438 279 395 264 b 221 305 301 264 257 279 l 144 228 l 95 277 l 172 355 b 133 479 147 390 133 433 b 173 605 133 526 148 569 l 95 683 m 348 619 b 209 479 272 619 209 556 b 348 340 209 403 272 340 b 488 479 425 340 488 403 b 348 619 488 556 425 619 "},"¦":{"ha":694,"x_min":0,"x_max":0,"o":"m 394 906 l 394 410 l 301 410 l 301 906 m 301 -210 l 301 272 l 394 272 l 394 -210 "},"¼":{"ha":694,"x_min":0,"x_max":0,"o":"m 541 923 l 606 886 l 170 -59 l 105 -23 m 593 335 l 593 63 l 663 63 l 663 10 l 593 10 l 593 -97 l 530 -97 l 530 11 l 327 11 l 327 51 l 550 335 m 400 63 l 531 63 l 531 227 m 202 579 l 306 579 l 306 519 l 23 519 l 23 579 l 133 579 l 133 853 l 27 826 l 8 860 l 155 941 l 202 941 "},"½":{"ha":694,"x_min":0,"x_max":0,"o":"m 541 923 l 606 886 l 170 -59 l 105 -23 m 365 233 b 528 326 398 291 461 326 b 677 201 617 326 677 269 b 625 98 677 149 640 113 b 457 -41 581 57 519 29 l 659 -41 b 671 -36 664 -41 667 -40 b 686 -31 674 -34 679 -29 l 686 -101 l 376 -101 l 376 -52 b 552 114 437 33 519 87 b 610 201 585 141 610 168 b 526 269 610 236 579 269 b 427 222 483 269 447 247 b 417 199 421 214 422 209 l 365 233 m 202 579 l 306 579 l 306 519 l 23 519 l 23 579 l 133 579 l 133 853 l 27 826 l 8 860 l 155 941 l 202 941 "},"¾":{"ha":694,"x_min":0,"x_max":0,"o":"m 548 923 l 614 886 l 177 -59 l 113 -23 m 177 950 b 323 830 260 950 323 894 b 260 743 323 790 297 755 b 342 648 307 735 342 695 b 174 520 342 576 262 520 b 16 592 113 520 55 546 l 67 649 b 83 618 77 639 73 629 b 175 582 89 613 122 582 b 273 654 229 582 273 615 b 175 716 273 675 260 716 b 142 714 164 716 153 715 l 142 769 b 164 768 149 769 157 768 b 257 825 237 768 257 800 b 174 891 257 859 224 891 b 70 839 136 891 97 873 l 30 881 b 177 950 67 925 121 950 m 593 335 l 593 63 l 663 63 l 663 10 l 593 10 l 593 -97 l 530 -97 l 530 11 l 327 11 l 327 51 l 550 335 m 400 63 l 531 63 l 531 227 "},"Ą":{"ha":694,"x_min":0,"x_max":0,"o":"m 331 658 l 219 328 l 453 328 m 326 881 l 337 881 l 671 0 l 672 0 b 580 -93 626 -42 591 -80 b 556 -141 570 -104 556 -121 b 597 -181 556 -163 572 -181 b 630 -173 605 -181 616 -179 b 675 -149 652 -166 666 -156 l 675 -212 b 579 -245 648 -236 613 -245 b 470 -160 507 -245 470 -206 b 580 0 470 -115 508 -59 l 571 0 l 475 253 l 200 253 l 116 -1 l 20 -1 "},"Ł":{"ha":694,"x_min":0,"x_max":0,"o":"m 215 865 b 215 861 215 864 215 863 b 203 819 215 844 203 841 l 203 456 l 433 531 b 469 544 445 535 456 538 l 469 455 l 203 370 l 203 83 l 620 83 l 620 -1 l 102 -1 l 102 338 l 28 314 l 28 399 l 102 423 l 102 865 "},"Ľ":{"ha":694,"x_min":0,"x_max":0,"o":"m 587 780 b 469 571 587 722 546 650 l 431 605 b 487 674 457 629 476 656 b 503 720 492 683 503 702 b 477 759 503 743 487 753 b 446 809 467 766 446 779 b 510 872 446 842 473 872 b 587 780 549 872 587 837 m 205 865 b 200 844 206 856 202 847 b 193 819 196 836 193 831 l 193 83 l 610 83 l 610 -1 l 92 -1 l 92 865 "},"Ś":{"ha":694,"x_min":0,"x_max":0,"o":"m 483 1002 l 248 917 l 216 974 l 428 1099 m 543 680 b 536 691 540 681 536 683 b 532 704 535 696 536 699 b 356 790 499 753 437 790 b 200 663 257 790 200 730 b 289 534 200 628 216 576 b 565 392 368 488 490 463 b 632 236 619 341 632 281 b 344 -14 632 127 554 -14 b 72 97 237 -14 140 23 l 129 197 b 136 183 136 193 136 186 b 140 169 136 178 135 174 b 347 73 178 120 252 73 b 535 230 472 73 535 155 b 463 350 535 269 520 314 b 192 480 397 391 273 420 b 100 648 120 533 100 598 b 364 870 100 767 208 870 b 604 762 458 870 545 832 "},"Ş":{"ha":694,"x_min":0,"x_max":0,"o":"m 543 680 b 536 691 540 681 536 683 b 532 704 535 696 536 699 b 356 790 499 753 437 790 b 200 663 257 790 200 730 b 289 534 200 628 216 576 b 565 392 368 488 490 463 b 632 236 619 341 632 281 b 377 -13 632 133 563 1 l 372 -66 l 394 -67 b 448 -78 412 -68 430 -69 b 489 -143 475 -91 489 -116 b 338 -246 489 -192 440 -246 b 174 -194 285 -246 226 -231 l 209 -137 b 346 -186 252 -172 304 -186 b 410 -152 400 -186 410 -164 b 395 -128 410 -144 406 -134 b 344 -119 380 -119 360 -119 l 303 -119 l 317 -14 b 72 97 221 -8 134 29 l 129 197 b 136 183 136 193 136 186 b 140 169 136 178 135 174 b 347 73 178 120 252 73 b 535 230 472 73 535 155 b 463 350 535 269 520 314 b 192 480 397 391 273 420 b 100 648 120 533 100 598 b 364 870 100 767 208 870 b 604 762 458 870 545 832 "},"Ť":{"ha":694,"x_min":0,"x_max":0,"o":"m 369 911 l 339 911 l 168 1046 l 213 1099 l 357 1001 l 512 1096 l 551 1049 m 642 867 l 642 779 l 387 779 l 387 -1 l 289 -1 l 289 779 l 43 779 l 43 867 "},"Ź":{"ha":694,"x_min":0,"x_max":0,"o":"m 483 1002 l 248 917 l 216 974 l 428 1099 m 621 865 l 620 797 l 192 85 l 601 85 b 642 93 620 85 625 96 l 642 -1 l 70 -1 l 70 67 l 506 778 l 86 778 l 86 865 "},"Ż":{"ha":694,"x_min":0,"x_max":0,"o":"m 354 1087 b 426 1016 393 1087 426 1055 b 354 944 426 977 393 944 b 282 1016 314 944 282 977 b 354 1087 282 1055 314 1087 m 621 865 l 620 797 l 192 85 l 601 85 b 642 93 620 85 625 96 l 642 -1 l 70 -1 l 70 67 l 506 778 l 86 778 l 86 865 "},"Ŕ":{"ha":694,"x_min":0,"x_max":0,"o":"m 483 1002 l 248 917 l 216 974 l 428 1099 m 333 865 b 499 836 389 865 444 864 b 621 628 578 796 621 715 b 445 386 621 513 550 415 l 645 0 l 536 0 l 344 382 l 176 382 l 176 0 l 78 0 l 78 865 m 176 467 l 344 467 b 444 485 378 467 411 468 b 521 617 495 511 521 562 b 439 756 521 674 493 729 b 333 774 404 773 369 774 l 176 774 "},"Ă":{"ha":694,"x_min":0,"x_max":0,"o":"m 177 1090 b 334 991 209 1039 265 991 b 499 1088 392 991 451 1027 l 538 1031 b 334 919 491 967 418 919 b 127 1026 258 919 182 960 l 177 1090 m 326 881 l 337 881 l 671 0 l 571 0 l 475 253 l 200 253 l 116 -1 l 20 -1 m 331 658 l 219 328 l 453 328 "},"Ĺ":{"ha":694,"x_min":0,"x_max":0,"o":"m 483 1002 l 248 917 l 216 974 l 428 1099 m 205 865 b 200 844 206 856 202 847 b 193 819 196 836 193 831 l 193 83 l 610 83 l 610 -1 l 92 -1 l 92 865 "},"Ć":{"ha":694,"x_min":0,"x_max":0,"o":"m 483 1002 l 248 917 l 216 974 l 428 1099 m 385 873 b 651 701 500 873 604 806 l 559 656 b 552 669 552 660 552 668 b 553 680 552 673 553 676 b 548 694 553 686 551 690 b 382 795 513 755 450 795 b 151 436 260 795 151 666 b 390 70 151 202 263 70 b 567 175 458 70 527 109 l 639 128 b 385 -14 585 40 488 -14 b 56 428 242 -14 56 93 b 385 873 56 774 251 873 "},"Č":{"ha":694,"x_min":0,"x_max":0,"o":"m 392 911 l 362 911 l 191 1046 l 236 1099 l 380 1001 l 535 1096 l 574 1049 m 385 873 b 651 701 500 873 604 806 l 559 656 b 552 669 552 660 552 668 b 553 680 552 673 553 676 b 548 694 553 686 551 690 b 382 795 513 755 450 795 b 151 436 260 795 151 666 b 390 70 151 202 263 70 b 567 175 458 70 527 109 l 639 128 b 385 -14 585 40 488 -14 b 56 428 242 -14 56 93 b 385 873 56 774 251 873 "},"Ę":{"ha":694,"x_min":0,"x_max":0,"o":"m 612 867 l 612 780 l 174 780 l 174 496 l 536 496 l 536 408 l 174 408 l 174 86 l 609 86 l 609 0 l 606 0 b 514 -93 560 -42 525 -80 b 490 -141 504 -104 490 -121 b 531 -181 490 -163 506 -181 b 564 -173 540 -181 550 -179 b 609 -149 586 -166 600 -156 l 609 -212 b 513 -245 582 -236 547 -245 b 404 -160 441 -245 404 -206 b 514 0 404 -115 442 -59 l 82 0 l 82 867 "},"Ě":{"ha":694,"x_min":0,"x_max":0,"o":"m 369 911 l 339 911 l 168 1046 l 213 1099 l 357 1001 l 512 1096 l 551 1049 m 612 867 l 612 780 l 174 780 l 174 496 l 536 496 l 536 408 l 174 408 l 174 86 l 609 86 l 609 0 l 82 0 l 82 867 "},"Ď":{"ha":694,"x_min":0,"x_max":0,"o":"m 333 911 l 303 911 l 132 1046 l 177 1099 l 321 1001 l 476 1096 l 515 1049 m 277 865 b 478 819 353 865 415 860 b 639 434 590 747 639 601 b 447 34 639 245 571 97 b 260 -1 386 2 329 -1 l 74 -1 l 74 865 m 167 76 l 255 76 b 417 115 310 76 363 78 b 541 421 486 161 541 256 b 434 735 541 545 514 669 b 271 783 380 780 325 783 l 167 783 "},"Đ":{"ha":694,"x_min":0,"x_max":0,"o":"m 303 865 b 499 814 378 865 438 859 b 647 438 603 737 647 585 b 443 25 647 253 576 87 b 286 -1 394 3 348 -1 l 109 -1 l 109 418 l 42 418 l 42 499 l 109 499 l 109 865 m 199 79 l 282 79 b 426 115 331 79 377 82 b 554 426 510 171 554 289 b 481 701 554 522 533 629 b 297 784 422 782 351 784 l 199 784 l 199 499 l 344 499 l 344 418 l 199 418 "},"Ń":{"ha":694,"x_min":0,"x_max":0,"o":"m 483 1002 l 248 917 l 216 974 l 428 1099 m 70 865 l 164 865 l 527 224 l 527 867 l 630 867 b 626 849 632 859 628 852 b 621 829 623 843 621 839 l 621 -1 l 544 -1 l 163 681 l 163 0 l 70 0 "},"Ň":{"ha":694,"x_min":0,"x_max":0,"o":"m 369 911 l 339 911 l 168 1046 l 213 1099 l 357 1001 l 512 1096 l 551 1049 m 70 865 l 164 865 l 527 224 l 527 867 l 630 867 b 626 849 632 859 628 852 b 621 829 623 843 621 839 l 621 -1 l 544 -1 l 163 681 l 163 0 l 70 0 "},"Ő":{"ha":694,"x_min":0,"x_max":0,"o":"m 635 1036 l 433 895 l 388 953 l 571 1125 m 388 1036 l 186 895 l 141 953 l 324 1125 m 654 431 b 603 154 654 355 649 247 b 353 -13 546 39 446 -13 b 41 434 221 -13 41 94 b 352 875 41 774 223 875 b 601 712 446 875 545 823 b 654 431 649 619 654 512 m 348 784 b 137 447 257 784 137 705 b 353 81 137 171 256 81 b 519 199 412 81 479 114 b 557 418 554 273 557 362 b 524 647 557 491 553 574 b 348 784 483 747 409 784 "},"Ř":{"ha":694,"x_min":0,"x_max":0,"o":"m 369 911 l 339 911 l 168 1046 l 213 1099 l 357 1001 l 512 1096 l 551 1049 m 333 865 b 499 836 389 865 444 864 b 621 628 578 796 621 715 b 445 386 621 513 550 415 l 645 0 l 536 0 l 344 382 l 176 382 l 176 0 l 78 0 l 78 865 m 176 467 l 344 467 b 444 485 378 467 411 468 b 521 617 495 511 521 562 b 439 756 521 674 493 729 b 333 774 404 773 369 774 l 176 774 "},"Ů":{"ha":694,"x_min":0,"x_max":0,"o":"m 478 982 b 351 859 478 915 422 859 b 224 982 280 859 224 915 b 351 1104 224 1049 280 1104 b 478 982 422 1104 478 1049 m 295 983 b 352 919 295 947 321 919 b 410 983 384 919 410 947 b 352 1046 410 1019 384 1046 b 295 983 321 1046 295 1019 m 179 865 b 180 858 180 863 180 861 b 171 839 180 850 175 844 b 165 821 166 832 165 827 l 165 297 b 186 170 165 254 166 212 b 351 67 217 103 283 67 b 516 168 419 67 484 102 b 538 301 537 213 538 256 l 538 865 l 630 865 l 630 303 b 596 120 630 240 629 180 b 349 -16 547 29 449 -16 b 103 119 247 -16 151 30 b 70 298 71 178 70 237 l 70 298 l 70 865 "},"Ű":{"ha":694,"x_min":0,"x_max":0,"o":"m 635 1036 l 433 895 l 388 953 l 571 1125 m 388 1036 l 186 895 l 141 953 l 324 1125 m 179 865 b 180 858 180 863 180 861 b 171 839 180 850 175 844 b 165 821 166 832 165 827 l 165 297 b 186 170 165 254 166 212 b 351 67 217 103 283 67 b 516 168 419 67 484 102 b 538 301 537 213 538 256 l 538 865 l 630 865 l 630 303 b 596 120 630 240 629 180 b 349 -16 547 29 449 -16 b 103 119 247 -16 151 30 b 70 298 71 178 70 237 l 70 298 l 70 865 "},"Ţ":{"ha":694,"x_min":0,"x_max":0,"o":"m 642 867 l 642 779 l 387 779 l 387 -1 l 370 -1 l 363 -66 l 386 -67 b 440 -78 404 -68 422 -69 b 481 -143 466 -91 481 -116 b 330 -246 481 -192 432 -246 b 165 -194 277 -246 217 -231 l 200 -137 b 338 -186 244 -172 296 -186 b 402 -152 392 -186 402 -164 b 386 -128 402 -144 397 -134 b 336 -119 371 -119 351 -119 l 295 -119 l 310 -1 l 289 -1 l 289 779 l 43 779 l 43 867 "},"ą":{"ha":694,"x_min":0,"x_max":0,"o":"m 489 297 b 281 288 423 297 338 301 b 169 171 201 269 169 217 b 302 61 169 114 218 61 b 469 136 385 61 446 111 b 512 255 512 181 512 222 l 512 297 m 126 560 b 352 649 185 621 267 649 b 573 543 451 649 531 612 b 604 393 602 494 604 445 l 604 0 l 603 0 b 510 -93 556 -42 522 -80 b 487 -141 500 -104 487 -121 b 527 -181 487 -163 502 -181 b 561 -173 536 -181 546 -179 b 605 -149 582 -166 596 -156 l 605 -212 b 509 -245 578 -236 544 -245 b 400 -160 437 -245 400 -206 b 511 0 400 -115 439 -59 l 509 0 l 509 70 b 282 -16 440 13 360 -16 b 68 164 149 -16 68 71 b 214 345 68 234 114 308 b 488 374 294 375 394 374 l 508 374 l 508 397 b 488 506 508 430 509 471 b 357 567 470 535 432 567 b 175 496 298 567 227 551 l 126 560 "},"ă":{"ha":694,"x_min":0,"x_max":0,"o":"m 203 898 b 359 799 234 848 290 799 b 524 897 417 799 476 835 l 563 839 b 359 728 516 775 443 728 b 152 834 283 728 207 768 l 203 898 m 126 560 b 352 649 185 621 267 649 b 573 543 451 649 531 612 b 604 393 602 494 604 445 l 604 0 l 509 0 l 509 70 b 282 -16 440 13 360 -16 b 68 164 149 -16 68 71 b 214 345 68 234 114 308 b 488 374 294 375 394 374 l 508 374 l 508 397 b 488 506 508 430 509 471 b 357 567 470 535 432 567 b 175 496 298 567 227 551 l 126 560 m 489 297 b 281 288 423 297 338 301 b 169 171 201 269 169 217 b 302 61 169 114 218 61 b 469 136 385 61 446 111 b 512 255 512 181 512 222 l 512 297 "},"č":{"ha":694,"x_min":0,"x_max":0,"o":"m 563 447 b 555 479 552 455 560 468 b 390 562 551 487 499 562 b 181 327 274 562 181 472 b 399 75 181 179 275 75 b 567 152 462 75 524 104 l 624 85 b 390 -16 564 20 479 -16 b 78 317 211 -16 78 126 b 397 647 78 507 210 647 b 634 530 499 647 584 603 m 369 719 l 339 719 l 186 916 l 251 964 l 358 821 l 471 962 l 524 915 "},"ď":{"ha":694,"x_min":0,"x_max":0,"o":"m 429 924 l 524 924 l 524 59 b 530 0 524 40 525 19 l 430 0 b 424 47 425 15 424 32 l 424 102 b 239 -14 386 35 317 -14 b 0 322 105 -14 0 127 b 252 651 0 532 123 651 b 429 542 328 651 396 609 m 257 570 b 97 334 167 570 97 471 b 261 74 97 205 158 74 b 390 155 316 74 364 113 b 421 306 417 200 421 248 b 400 476 421 390 419 435 b 257 570 372 534 308 570 m 707 840 b 589 631 707 782 666 710 l 551 665 b 606 734 577 689 596 716 b 623 780 612 743 623 762 b 597 819 623 803 606 813 b 566 869 587 826 566 839 b 630 932 566 902 593 932 b 707 840 669 932 707 897 "},"ę":{"ha":694,"x_min":0,"x_max":0,"o":"m 359 650 b 611 423 464 650 582 594 b 615 303 617 386 619 346 l 165 303 b 380 66 172 113 295 66 b 544 138 443 66 503 92 l 599 84 l 550 23 b 463 -122 502 -37 463 -81 b 518 -176 463 -153 486 -176 b 589 -150 525 -176 549 -175 l 587 -218 b 496 -243 561 -232 529 -243 b 381 -140 427 -243 381 -197 b 458 -1 381 -99 407 -50 b 363 -14 427 -10 395 -14 b 68 313 196 -14 68 105 b 359 650 68 541 208 650 m 517 380 b 352 573 529 483 455 573 b 168 380 284 573 188 530 "},"ľ":{"ha":694,"x_min":0,"x_max":0,"o":"m 659 840 b 541 631 659 782 618 710 l 503 665 b 558 734 529 689 548 716 b 575 780 564 743 575 762 b 549 819 575 803 559 813 b 518 869 539 826 518 839 b 582 932 518 902 545 932 b 659 840 621 932 659 897 m 374 923 l 374 80 l 561 80 l 561 0 l 85 0 l 85 80 l 273 80 l 273 843 l 93 843 l 93 923 "},"ĺ":{"ha":694,"x_min":0,"x_max":0,"o":"m 398 923 l 398 80 l 585 80 l 585 0 l 109 0 l 109 80 l 297 80 l 297 843 l 117 843 l 117 923 m 483 1062 l 248 977 l 216 1034 l 428 1159 "},"ń":{"ha":694,"x_min":0,"x_max":0,"o":"m 493 912 l 352 725 l 283 767 l 405 971 m 95 634 l 197 634 l 197 523 b 407 650 243 593 321 650 b 576 538 480 650 545 609 b 599 385 599 487 599 434 l 599 385 l 599 0 l 501 0 l 501 382 b 466 523 501 427 501 482 b 380 563 444 550 412 563 b 228 475 313 563 252 507 b 197 366 202 439 197 408 l 197 0 l 95 0 "},"ň":{"ha":694,"x_min":0,"x_max":0,"o":"m 369 719 l 339 719 l 186 916 l 251 964 l 358 821 l 471 962 l 524 915 m 95 634 l 197 634 l 197 523 b 407 650 243 593 321 650 b 576 538 480 650 545 609 b 599 385 599 487 599 434 l 599 385 l 599 0 l 501 0 l 501 382 b 466 523 501 427 501 482 b 380 563 444 550 412 563 b 228 475 313 563 252 507 b 197 366 202 439 197 408 l 197 0 l 95 0 "},"ő":{"ha":694,"x_min":0,"x_max":0,"o":"m 385 912 l 245 725 l 175 767 l 297 971 m 601 912 l 460 725 l 391 767 l 513 971 m 639 314 b 354 -17 639 104 504 -17 b 56 312 194 -17 56 119 b 357 648 56 508 195 648 b 639 314 501 648 639 533 m 350 563 b 162 321 253 563 162 477 b 354 70 162 164 253 70 b 538 310 447 70 538 151 b 350 563 538 484 441 563 "},"ř":{"ha":694,"x_min":0,"x_max":0,"o":"m 369 719 l 339 719 l 186 916 l 251 964 l 358 821 l 471 962 l 524 915 m 242 634 l 239 512 b 467 649 280 603 374 649 b 636 580 538 649 597 621 l 590 484 b 566 516 579 494 575 505 b 461 564 548 539 515 564 b 283 457 417 564 341 548 b 239 308 240 388 239 346 l 239 -1 l 138 -1 l 138 634 "},"ś":{"ha":694,"x_min":0,"x_max":0,"o":"m 493 912 l 352 725 l 283 767 l 405 971 m 542 463 b 535 474 539 463 534 466 b 532 487 535 479 535 482 b 355 574 507 518 446 574 b 222 488 284 574 222 539 b 285 410 222 466 233 435 b 518 327 344 382 446 367 b 611 184 593 285 611 228 b 347 -14 611 88 520 -14 b 79 86 251 -14 154 17 l 137 186 b 143 173 143 183 143 175 b 147 158 143 167 142 163 b 345 70 167 135 236 70 b 508 170 436 70 508 110 b 445 251 508 193 497 226 b 274 309 398 273 328 290 b 120 473 240 321 120 362 b 364 650 120 567 216 650 b 601 550 458 650 542 615 "},"ć":{"ha":694,"x_min":0,"x_max":0,"o":"m 493 912 l 352 725 l 283 767 l 405 971 m 563 447 b 555 479 552 455 560 468 b 390 562 551 487 499 562 b 181 327 274 562 181 472 b 399 75 181 179 275 75 b 567 152 462 75 524 104 l 624 85 b 390 -16 564 20 479 -16 b 78 317 211 -16 78 126 b 397 647 78 507 210 647 b 634 530 499 647 584 603 "},"ş":{"ha":694,"x_min":0,"x_max":0,"o":"m 542 463 b 535 474 539 463 534 466 b 532 487 535 479 535 482 b 355 574 507 518 446 574 b 222 488 284 574 222 539 b 285 410 222 466 233 435 b 518 327 344 382 446 367 b 611 184 593 285 611 228 b 386 -13 611 95 534 1 l 380 -66 l 403 -67 b 457 -78 420 -68 439 -69 b 498 -143 483 -91 498 -116 b 347 -246 498 -192 449 -246 b 182 -194 294 -246 234 -231 l 217 -137 b 355 -186 261 -172 313 -186 b 418 -152 409 -186 418 -164 b 403 -128 418 -144 414 -134 b 352 -119 388 -119 368 -119 l 312 -119 l 325 -14 b 79 86 236 -9 148 22 l 137 186 b 143 173 143 183 143 175 b 147 158 143 167 142 163 b 345 70 167 135 236 70 b 508 170 436 70 508 110 b 445 251 508 193 497 226 b 274 309 398 273 328 290 b 120 473 240 321 120 362 b 364 650 120 567 216 650 b 601 550 458 650 542 615 "},"ţ":{"ha":694,"x_min":0,"x_max":0,"o":"m 370 822 b 363 785 375 808 365 800 b 346 635 356 750 346 635 l 554 635 l 554 553 l 345 553 b 333 304 337 470 333 387 b 337 182 333 212 336 188 b 444 80 347 106 397 80 b 586 138 483 80 532 98 l 617 59 b 446 -10 571 25 510 -3 l 440 -66 l 463 -67 b 516 -78 480 -68 499 -69 b 557 -143 543 -91 557 -116 b 407 -246 557 -192 509 -246 b 242 -194 353 -246 294 -231 l 277 -137 b 415 -186 321 -172 373 -186 b 478 -152 469 -186 478 -164 b 463 -128 478 -144 474 -134 b 412 -119 448 -119 428 -119 l 372 -119 l 386 -10 b 270 55 335 -4 295 20 b 233 228 233 107 233 171 b 246 553 233 336 237 444 l 97 553 l 98 634 l 249 634 l 261 804 "},"ů":{"ha":694,"x_min":0,"x_max":0,"o":"m 483 840 b 356 718 483 773 427 718 b 229 840 285 718 229 773 b 356 962 229 907 285 962 b 483 840 427 962 483 907 m 300 841 b 357 778 300 806 326 778 b 415 842 388 778 415 805 b 357 905 415 877 389 905 b 300 841 326 905 300 877 m 188 634 l 188 280 b 211 144 188 238 188 188 b 332 66 236 93 282 66 b 478 160 393 66 449 107 b 503 285 500 199 503 236 l 503 634 l 604 634 l 604 58 b 611 0 604 39 605 19 l 506 0 b 503 49 503 16 503 33 l 505 97 b 309 -16 463 27 388 -16 b 111 114 226 -16 149 30 b 86 280 87 170 86 225 l 87 634 "},"ű":{"ha":694,"x_min":0,"x_max":0,"o":"m 385 912 l 245 725 l 175 767 l 297 971 m 601 912 l 460 725 l 391 767 l 513 971 m 188 634 l 188 280 b 211 144 188 238 188 188 b 332 66 236 93 282 66 b 478 160 393 66 449 107 b 503 285 500 199 503 236 l 503 634 l 604 634 l 604 58 b 611 0 604 39 605 19 l 506 0 b 503 49 503 16 503 33 l 505 97 b 309 -16 463 27 388 -16 b 111 114 226 -16 149 30 b 86 280 87 170 86 225 l 87 634 "},"ż":{"ha":694,"x_min":0,"x_max":0,"o":"m 592 635 l 592 567 l 205 85 l 583 85 b 624 93 602 85 607 96 l 624 -1 l 70 -1 l 70 67 l 463 548 l 98 548 l 98 635 m 354 911 b 426 840 393 911 426 879 b 354 768 426 800 393 768 b 282 840 314 768 282 800 b 354 911 282 879 314 911 "},"ł":{"ha":694,"x_min":0,"x_max":0,"o":"m 398 923 l 398 514 l 488 545 b 525 566 502 550 512 556 l 525 464 l 398 421 l 398 80 l 585 80 l 585 0 l 109 0 l 109 80 l 297 80 l 297 387 l 188 350 l 188 441 l 297 479 l 297 843 l 117 843 l 117 923 "},"ě":{"ha":694,"x_min":0,"x_max":0,"o":"m 369 719 l 339 719 l 186 916 l 251 964 l 358 821 l 471 962 l 524 915 m 359 650 b 610 424 463 650 582 595 b 615 303 617 388 619 347 l 165 303 b 380 66 172 113 295 66 b 544 138 443 66 503 92 l 599 84 b 372 -15 545 19 463 -15 b 67 310 200 -15 67 99 b 359 650 67 542 208 650 m 517 380 b 352 573 529 483 455 573 b 168 380 284 573 188 530 "},"ĸ":{"ha":694,"x_min":0,"x_max":0,"o":"m 206 634 b 206 631 206 633 206 632 b 198 613 206 623 201 618 b 193 598 193 607 193 603 l 193 343 l 511 638 b 585 630 535 632 561 630 l 621 630 l 354 379 l 665 -1 b 656 -1 662 -1 659 -1 b 536 -6 589 -1 536 -6 l 277 318 l 193 240 l 193 -1 l 92 -1 l 92 634 "},"ȷ":{"ha":694,"x_min":0,"x_max":0,"o":"m 512 635 l 512 44 b 483 -116 512 -10 510 -62 b 261 -242 440 -200 351 -242 b 67 -153 182 -242 113 -210 l 132 -67 b 144 -93 140 -74 138 -83 b 267 -156 149 -101 191 -156 b 395 -76 321 -156 371 -127 b 411 25 411 -42 411 -9 l 411 553 l 175 553 l 175 635 "},"ŋ":{"ha":694,"x_min":0,"x_max":0,"o":"m 95 634 l 197 634 l 197 523 b 407 650 243 593 321 650 b 576 538 480 650 545 609 b 599 385 599 487 599 434 l 599 78 b 575 -98 599 20 599 -39 b 365 -244 536 -192 452 -244 b 229 -198 315 -244 268 -228 l 277 -104 b 289 -122 286 -106 285 -117 b 367 -151 292 -127 323 -151 b 471 -92 405 -151 445 -132 b 501 62 501 -45 501 13 l 501 382 b 466 523 501 427 501 482 b 380 563 444 550 412 563 b 228 475 313 563 252 507 b 197 366 202 439 197 408 l 197 0 l 95 0 "},"‚":{"ha":694,"x_min":0,"x_max":0,"o":"m 424 27 b 277 -234 424 -45 374 -136 l 229 -192 b 299 -105 262 -161 285 -128 b 319 -48 306 -94 319 -71 b 287 2 319 -19 299 -6 b 248 63 275 10 248 26 b 328 143 248 105 282 143 b 424 27 377 143 424 98 "},"“":{"ha":694,"x_min":0,"x_max":0,"o":"m 397 625 b 544 886 397 697 448 787 l 592 844 b 522 757 559 813 536 780 b 502 699 516 746 502 722 b 534 650 502 671 522 658 b 573 589 547 642 573 626 b 493 509 573 547 539 509 b 397 625 444 509 397 554 m 109 625 b 257 886 109 697 160 787 l 305 844 b 235 757 272 813 248 780 b 214 699 228 746 214 722 b 247 650 214 671 235 658 b 285 589 259 642 285 626 b 206 509 285 547 251 509 b 109 625 156 509 109 554 "},"”":{"ha":694,"x_min":0,"x_max":0,"o":"m 281 771 b 133 509 281 698 230 608 l 85 551 b 155 638 118 582 141 615 b 176 696 162 649 176 673 b 143 745 176 724 155 737 b 104 806 131 753 104 769 b 184 886 104 848 138 886 b 281 771 234 886 281 842 m 568 771 b 421 509 568 698 517 608 l 373 551 b 443 638 406 582 429 615 b 463 696 449 649 463 673 b 431 745 463 724 443 737 b 392 806 418 753 392 769 b 472 886 392 848 426 886 b 568 771 521 886 568 842 "},"„":{"ha":694,"x_min":0,"x_max":0,"o":"m 568 27 b 421 -234 568 -45 517 -136 l 373 -192 b 443 -105 406 -161 429 -128 b 463 -48 449 -94 463 -71 b 431 2 463 -19 443 -6 b 392 63 418 10 392 26 b 472 143 392 105 426 143 b 568 27 521 143 568 98 m 281 27 b 133 -234 281 -45 230 -136 l 85 -192 b 155 -105 118 -161 141 -128 b 176 -48 162 -94 176 -71 b 143 2 176 -19 155 -6 b 104 63 131 10 104 26 b 184 143 104 105 138 143 b 281 27 234 143 281 98 "},"…":{"ha":694,"x_min":0,"x_max":0,"o":"m 653 64 b 571 -16 653 20 617 -16 b 489 64 525 -16 489 20 b 571 144 489 108 525 144 b 653 64 617 144 653 108 m 174 64 b 92 -16 174 20 137 -16 b 10 64 46 -16 10 20 b 92 144 10 108 46 144 b 174 64 137 144 174 108 m 414 64 b 331 -16 414 20 377 -16 b 249 64 286 -16 249 20 b 331 144 249 108 286 144 b 414 64 377 144 414 108 "},"↑":{"ha":694,"x_min":0,"x_max":0,"o":"m 342 889 l 372 889 l 612 559 l 543 512 l 396 712 l 396 -47 l 303 -47 l 303 712 l 141 512 l 82 561 "},"↓":{"ha":694,"x_min":0,"x_max":0,"o":"m 352 -47 l 322 -47 l 82 284 l 151 331 l 298 131 l 298 889 l 391 889 l 391 130 l 553 331 l 612 282 "},"␣":{"ha":694,"x_min":0,"x_max":0,"o":"m 132 97 l 132 -29 l 561 -29 l 561 97 l 628 97 l 628 -91 l 67 -91 l 67 97 "},"ğ":{"ha":694,"x_min":0,"x_max":0,"o":"m 203 898 b 359 799 234 848 290 799 b 524 897 417 799 476 835 l 563 839 b 359 728 516 775 443 728 b 152 834 283 728 207 768 l 203 898 m 175 437 b 315 297 175 360 237 297 b 454 437 392 297 454 360 b 315 576 454 514 392 576 b 175 437 238 576 175 514 m 321 655 b 471 595 379 655 432 633 b 647 651 520 636 583 656 l 659 569 b 623 572 647 571 635 572 b 512 542 584 572 545 562 b 544 434 533 510 544 473 b 316 217 544 317 441 217 b 235 231 288 217 261 222 b 190 160 229 226 190 194 b 228 119 190 140 204 125 b 319 111 242 115 271 111 b 533 93 391 111 467 120 b 632 -45 601 65 632 10 b 340 -239 632 -130 555 -239 b 53 -89 118 -239 53 -158 b 156 52 53 -38 88 8 b 106 136 116 73 106 110 b 177 259 106 177 132 220 b 84 431 119 297 84 361 b 321 655 84 555 194 655 m 224 34 b 145 -65 188 14 145 -19 b 208 -143 145 -87 156 -122 b 338 -163 255 -162 309 -163 b 481 -135 381 -163 435 -161 b 540 -51 525 -112 540 -79 b 465 23 540 -23 524 14 b 330 26 428 28 377 25 b 224 34 282 28 248 31 "},"⁴":{"ha":694,"x_min":0,"x_max":0,"o":"m 473 891 l 473 550 l 561 550 l 561 484 l 473 484 l 473 350 l 394 350 l 394 485 l 141 485 l 141 535 l 420 891 m 233 550 l 396 550 l 396 755 "},"⁄":{"ha":694,"x_min":0,"x_max":0,"o":"m 541 923 l 606 886 l 170 -59 l 105 -23 "},"Ŋ":{"ha":694,"x_min":0,"x_max":0,"o":"m 71 865 l 173 865 l 173 753 b 398 881 222 830 307 881 b 597 754 483 881 560 835 b 623 589 623 699 623 643 l 623 589 l 623 243 b 600 100 623 195 622 148 b 413 -15 565 27 493 -15 b 291 19 371 -15 329 -3 l 340 105 b 355 89 348 101 349 94 b 416 72 358 87 384 72 b 510 133 456 72 491 94 b 525 236 525 166 525 203 l 525 586 b 504 716 525 627 525 673 b 380 794 479 765 433 794 b 204 691 305 794 235 735 b 173 573 178 653 173 619 l 173 0 l 71 0 "},"đ":{"ha":694,"x_min":0,"x_max":0,"o":"m 324 569 b 150 339 251 569 150 520 b 328 74 150 130 256 74 b 485 194 394 74 460 118 b 498 310 495 226 498 262 b 487 446 498 381 495 416 b 324 569 462 540 380 569 m 601 59 b 606 0 601 40 601 19 l 507 0 b 501 47 502 15 501 32 l 501 102 b 305 -14 461 31 386 -14 b 53 323 182 -14 53 88 b 320 651 53 565 199 651 b 506 542 407 651 475 607 l 506 755 l 400 755 l 400 829 l 506 829 l 506 924 l 612 924 b 605 903 613 915 608 908 b 599 885 600 896 599 892 l 599 829 l 660 829 l 660 755 l 599 755 "},"Ğ":{"ha":694,"x_min":0,"x_max":0,"o":"m 203 1098 b 359 1000 234 1048 290 1000 b 524 1097 417 1000 476 1035 l 563 1039 b 359 928 516 975 443 928 b 152 1034 283 928 207 968 l 203 1098 m 385 874 b 636 729 492 874 587 818 l 568 659 b 550 687 557 666 554 677 b 384 789 523 745 462 789 b 190 665 312 789 234 749 b 146 443 156 601 146 523 b 229 148 146 351 156 230 b 393 72 276 94 337 72 b 549 125 445 72 500 90 l 549 331 l 392 331 l 392 415 l 639 415 l 639 77 b 385 -13 557 17 465 -13 b 50 422 234 -13 50 95 b 385 874 50 802 270 874 "},"İ":{"ha":694,"x_min":0,"x_max":0,"o":"m 330 1099 b 402 1028 369 1099 402 1067 b 330 956 402 989 369 956 b 258 1028 290 956 258 989 b 330 1099 258 1067 290 1099 m 551 865 l 551 784 l 380 784 l 380 79 l 560 79 l 560 -1 l 113 -1 l 113 80 l 283 80 l 283 784 l 122 784 l 122 865 "},"ŕ":{"ha":694,"x_min":0,"x_max":0,"o":"m 493 912 l 352 725 l 283 767 l 405 971 m 242 634 l 239 512 b 467 649 280 603 374 649 b 636 580 538 649 597 621 l 590 484 b 566 516 579 494 575 505 b 461 564 548 539 515 564 b 283 457 417 564 341 548 b 239 308 240 388 239 346 l 239 -1 l 138 -1 l 138 634 "},"ť":{"ha":694,"x_min":0,"x_max":0,"o":"m 671 888 b 553 679 671 830 630 757 l 515 712 b 570 782 541 737 560 764 b 587 828 576 790 587 809 b 561 867 587 851 571 861 b 530 917 551 874 530 887 b 594 980 530 950 557 980 b 671 888 633 980 671 945 m 334 822 b 327 785 339 808 329 800 b 310 635 320 750 310 635 l 518 635 l 518 553 l 309 553 b 297 304 301 470 297 387 b 301 182 297 212 301 188 b 408 80 311 106 361 80 b 550 138 447 80 496 98 l 581 59 b 379 -12 528 19 454 -12 b 234 55 314 -12 264 13 b 197 228 197 107 197 171 b 210 553 197 336 201 444 l 61 553 l 62 634 l 213 634 l 225 804 "},"ź":{"ha":694,"x_min":0,"x_max":0,"o":"m 493 912 l 352 725 l 283 767 l 405 971 m 592 635 l 592 567 l 205 85 l 583 85 b 624 93 602 85 607 96 l 624 -1 l 70 -1 l 70 67 l 463 548 l 98 548 l 98 635 "},"•":{"ha":694,"x_min":0,"x_max":0,"o":"m 473 412 b 355 296 473 348 421 296 b 237 412 290 296 237 348 b 355 527 237 475 290 527 b 473 412 421 527 473 475 "},"ƒ":{"ha":694,"x_min":0,"x_max":0,"o":"m 621 770 b 609 780 617 770 611 772 b 606 797 608 786 609 790 b 513 856 593 824 559 856 b 416 786 478 856 438 836 b 391 646 396 743 394 690 l 382 532 l 553 532 l 553 453 l 375 453 l 342 34 b 297 -144 337 -28 329 -89 b 138 -243 257 -212 195 -243 b 25 -194 95 -243 54 -225 l 82 -105 b 96 -123 90 -110 93 -117 b 146 -150 104 -136 122 -150 b 217 -100 169 -150 197 -137 b 248 37 241 -57 245 -5 l 279 453 l 111 453 l 111 532 l 285 532 l 295 659 b 329 818 299 712 303 766 b 512 935 368 894 438 935 b 666 862 571 935 628 908 "},"†":{"ha":694,"x_min":0,"x_max":0,"o":"m 394 906 l 394 634 l 624 634 l 624 551 l 394 551 l 394 -210 l 301 -210 l 301 551 l 68 551 l 68 634 l 301 634 l 301 906 "},"‡":{"ha":694,"x_min":0,"x_max":0,"o":"m 394 906 l 394 634 l 624 634 l 624 551 l 394 551 l 394 168 l 624 168 l 624 85 l 394 85 l 394 -210 l 301 -210 l 301 85 l 68 85 l 68 168 l 301 168 l 301 551 l 68 551 l 68 634 l 301 634 l 301 906 "},"™":{"ha":694,"x_min":0,"x_max":0,"o":"m 331 826 l 207 826 l 207 444 l 144 444 l 144 826 l 25 826 l 25 881 l 331 881 m 520 680 l 572 781 l 624 881 l 670 881 l 670 444 l 612 444 l 612 743 l 570 667 l 529 593 l 506 594 l 430 743 l 430 444 l 372 444 l 372 881 l 420 881 "}}}
